<?xml version="1.0" encoding="UTF-8" standalone="no"?>
<svg
   xmlns:dc="http://purl.org/dc/elements/1.1/"
   xmlns:cc="http://creativecommons.org/ns#"
   xmlns:rdf="http://www.w3.org/1999/02/22-rdf-syntax-ns#"
   xmlns:svg="http://www.w3.org/2000/svg"
   xmlns="http://www.w3.org/2000/svg"
   xmlns:sodipodi="http://sodipodi.sourceforge.net/DTD/sodipodi-0.dtd"
   xmlns:inkscape="http://www.inkscape.org/namespaces/inkscape"
   width="210mm"
   height="297mm"
   viewBox="0 0 210 297"
   version="1.1"
   id="svg1087"
   inkscape:version="1.0.2-2 (e86c870879, 2021-01-15)"
   sodipodi:docname="building_home_all_states.svg">
  <defs
     id="defs1081">
    <filter
       id="splotch">
      <feTurbulence
         type="fractalNoise"
         baseFrequency="0.028151774785801713"
         numOctaves="3"
         id="feTurbulence5" />
      <feColorMatrix
         values="0 0 0 0 0, 0 0 0 0 0, 0 0 0 0 0, 0 0 0 -0.9 1.2"
         result="texture"
         id="feColorMatrix7" />
      <feComposite
         in="SourceGraphic"
         in2="texture"
         operator="in"
         id="feComposite9" />
      <feGaussianBlur
         stdDeviation="0.01"
         id="feGaussianBlur11" />
    </filter>
  </defs>
  <sodipodi:namedview
     id="base"
     pagecolor="#ffffff"
     bordercolor="#666666"
     borderopacity="1.0"
     inkscape:pageopacity="0.0"
     inkscape:pageshadow="2"
     inkscape:zoom="0.0875"
     inkscape:cx="-2402.7091"
     inkscape:cy="-1322.2684"
     inkscape:document-units="mm"
     inkscape:current-layer="layer3"
     inkscape:document-rotation="0"
     showgrid="false"
     inkscape:window-width="1600"
     inkscape:window-height="1228"
     inkscape:window-x="133"
     inkscape:window-y="644"
     inkscape:window-maximized="0"
     inkscape:snap-global="false" />
  <metadata
     id="metadata1084">
    <rdf:RDF>
      <cc:Work
         rdf:about="">
        <dc:format>image/svg+xml</dc:format>
        <dc:type
           rdf:resource="http://purl.org/dc/dcmitype/StillImage" />
        <dc:title></dc:title>
      </cc:Work>
    </rdf:RDF>
  </metadata>
  <g
     inkscape:label="Ebene 1"
     inkscape:groupmode="layer"
     id="layer1">
    <path
       style="fill:#adb5bd;stroke:none;stroke-width:0.499999;stroke-linecap:round;stroke-linejoin:round;fill-opacity:1"
       d="m -432.1802,690.38249 -4.94448,-17.77341 3.8754,-90.20347 -5.21176,-145.79552 1.60361,-68.15373 30.46873,29.93419 10.95806,1.60361 22.85154,-21.64883 62.67471,-45.56945 52.91936,-31.5378 78.97815,-52.11756 1.46997,31.00326 -3.13409,64.73247 6.23662,87.12351 -0.18899,71.72098 -27.49777,21.92262 -82.20983,52.4442 -75.59524,56.50745 -42.8058,30.71056 -13.22916,12.37871 z"
       id="path4229" />
    <path
       style="fill:#cccccc;fill-opacity:1;stroke:none;stroke-width:0.499999;stroke-linecap:round;stroke-linejoin:round"
       d="m -702.11703,206.86661 34.47775,-4.81085 5.27859,0.33409 4.2095,8.0849 2.20496,35.27958 1.60361,10.35669 -46.42522,43.43512 c 0,0 0,-32.12798 0,-32.88395 0,-0.75594 -2.26788,-30.23809 -2.26788,-30.23809 l -3.02379,-15.11904 1.32292,-9.82738 z"
       id="path2072" />
    <path
       style="fill:#eeeeee;stroke:none;stroke-width:0.499999;stroke-linecap:round;stroke-linejoin:round;fill-opacity:1"
       d="m -432.1802,690.38249 -16.13736,5.04669 -95.81697,-3.11833 -77.39062,2.55135 -74.74479,2.36236 -60.00372,-2.64583 -27.06529,-4.12941 4.48971,-230.75596 -1.53461,-56.75868 -0.16068,-12.17804 -0.57422,-13.3037 14.13993,-17.30104 48.49484,-44.79201 32.63291,-31.8348 52.17088,-46.90603 30.83274,-25.7825 12.62752,-0.76902 50.97796,57.00392 103.17731,103.05394 1.66021,155.10558 0.036,96.63798 -1.86672,60.75031 z"
       id="path4231" />
    <path
       style="fill:#888888;stroke:none;stroke-width:0.499999;stroke-linecap:round;stroke-linejoin:round;fill-opacity:1"
       d="m -356.37046,630.96792 -2.57636,-11.49925 1.39814,-50.04279 -1.32818,-81.49684 1.75334,-20.40628 6.54386,-9.24363 41.72855,-22.00446 12.37916,-0.15718 1.51024,37.42365 -2.54396,70.67524 2.28684,29.39362 1.67005,12.00508 z"
       id="path4233" />
    <path
       style="fill:#5bc0dd;fill-opacity:0.65098;stroke:none;stroke-width:0.499999;stroke-linecap:round;stroke-linejoin:round"
       d="m -521.01412,502.92325 -16.29875,-1.84595 -36.36279,5.45242 -7.21659,0.11509 -0.98149,-8.08745 7.56024,-55.84009 2.76986,-37.81164 22.33513,-7.02528 43.4315,-0.022 5.1623,19.25674 -1.05804,47.70504 -5.70397,35.53231 z"
       id="path2091" />
    <path
       style="fill:#5bc0dd;fill-opacity:0.65098;stroke:none;stroke-width:0.370905;stroke-linecap:round;stroke-linejoin:round"
       d="m -208.66973,394.6751 -10.09087,5.01823 -22.51289,19.7024 -4.46793,3.05065 -0.60766,-6.78729 4.68069,-52.72038 1.71487,-34.73929 13.82811,-15.36929 26.88926,-17.76372 3.19608,15.00664 -0.65505,42.83331 -3.53144,33.91214 z"
       id="path2087" />
    <path
       style="fill:#5bc0dd;fill-opacity:0.65098;stroke:none;stroke-width:0.499999;stroke-linecap:round;stroke-linejoin:round"
       d="m -661.62126,502.92325 -16.29875,-1.84595 -36.36279,5.45242 -7.21659,0.11509 -0.98149,-8.08745 7.56024,-55.84009 2.76986,-37.81164 22.33513,-7.02528 43.4315,-0.022 5.1623,19.25674 -1.05804,47.70504 -5.70397,35.53231 z"
       id="path4235" />
    <path
       style="fill:#f04124;stroke:none;stroke-width:0.499999;stroke-linecap:round;stroke-linejoin:round;fill-opacity:1"
       d="m -395.43064,399.99416 21.39352,-18.63538 77.78626,-56.12736 134.39052,-85.91621 7.31568,-12.67655 -96.85094,-65.46284 -92.11704,-72.04437 -110.10688,54.12221 -128.86411,63.35809 -7.7363,3.45579 64.03005,70.80752 51.31701,51.58141 42.79292,40.46779 25.69125,25.46629 z"
       id="path4260" />
    <path
       style="fill:#495057;fill-opacity:1;stroke:none;stroke-width:0.499999;stroke-linecap:round;stroke-linejoin:round"
       d="m -660.13541,202.87872 6.80358,-6.89807 0.18899,6.70908 1.88986,14.45759 -0.94493,17.00893 2.36236,17.29241 -5.19718,4.7247 -2.36236,-19.46577 -0.85043,-21.63914 z"
       id="path2080" />
    <path
       style="fill:#495057;fill-opacity:1;stroke:none;stroke-width:0.499999;stroke-linecap:round;stroke-linejoin:round"
       d="m -698.311,204.29613 34.8683,-2.26786 3.49628,0.75595 6.61459,-6.42559 0.85045,-3.11831 -7.37055,-0.37797 -13.13466,1.03943 -13.51267,-0.0945 -10.7723,8.12649 z"
       id="path2082" />
    <path
       id="path1584"
       style="fill:#333333;fill-opacity:1;stroke-width:0.352778"
       d="m -688.27502,698.65299 c -23.7774,-3.03315 -82.86209,3.34962 -85.81495,-7.23724 27.6865,0.52234 68.10394,-0.86659 88.83806,4.33439 18.28932,-5.7621 38.76411,1.568 56.80116,-3.8311 62.49418,-1.39726 125.5558,-4.00303 187.9449,1.96369 -24.0446,10.64027 -75.73414,-2.57749 -109.60732,1.43472 -46.06562,0.2684 -92.11333,3.75148 -138.16185,3.33554 z m 255.22007,-0.82674 c -9.732,-26.44896 -1.5247,-57.96692 -2.978,-85.98901 3.2392,-24.85472 -1.999,-51.95444 0.5789,-75.06543 -2.2071,-21.80386 -1.6072,-42.87073 -2.1469,-67.80388 -1.917,-29.8196 -2.7284,-60.7838 1.5619,-90.7862 11.6017,18.7636 -1.1858,45.8915 3.8175,67.8286 3.7062,25.7313 0,16.993 1.5387,46.36171 2.0842,14.88818 -0.9242,30.12357 3.0505,43.04575 -4.5943,23.43854 0.7937,43.6149 -1.3203,65.64417 2.567,17.42678 -2.9953,32.42844 -0.1746,49.17168 -2.319,9.04342 -8.0743,58.959 15.9352,22.65739 16.7327,-18.06312 38.8142,-25.79231 56.7801,-42.85956 -10.9284,-25.98495 2.219,-61.63506 -1.6398,-94.13847 3.119,-16.44171 -8.9778,-76.08267 5.0328,-71.18977 -0.9246,37.70647 0.8878,78.34293 -0.7912,114.12911 -2.2604,16.25202 2.5303,34.31574 -0.9103,48.85421 13.79,-8.28884 38.3118,-26.91234 55.4767,-40.29957 38.4793,-28.26833 80.655,-50.79389 119.1352,-78.73453 -1.4012,16.88565 -38.3882,29.50682 -54.491,43.30104 -58.2334,34.64355 -109.32,79.48494 -165.1977,117.567 -11.5992,7.9904 -21.7606,22.57982 -33.2577,28.30576 z m 208.2561,-155.70076 c -2.7005,-2.77215 -2.4035,2.55922 0,0 z m -557.8553,149.2565 c -4.88761,-35.73827 0.0638,-75.42857 1.03534,-112.57929 0.25286,-54.08095 -0.20779,-108.29707 -1.23107,-162.39867 2.34619,-9.8236 6.5278,-36.8473 -2.47822,-33.6167 -10.47569,14.8699 -44.05368,30.9139 -13.70572,4.5954 31.13998,-30.0246 68.29935,-56.1177 94.44632,-89.9689 5.37965,-29.5993 -9.28624,-72.0621 1.33913,-93.895 11.94096,-1.1093 31.78586,-4.60892 41.93021,-2.98835 10.14436,1.62058 2.30282,8.22773 6.71215,28.80195 -1.56631,46.975 -8.44702,-14.657 -7.70415,-26.398 -20.00253,7.1308 -56.76051,-3.2101 -37.09833,29.219 7.20441,21.5882 -12.40441,84.9215 20.48801,41.5357 25.04252,-23.159 51.88171,-44.2945 78.57346,-65.3543 4.66119,15.3442 -32.90451,28.4173 -44.28713,43.4615 -46.78011,39.8585 -86.66227,87.1798 -134.74425,125.5735 4.64686,40.8494 2.26939,84.0522 4.10774,125.76812 -0.18539,62.45238 0.0102,126.28299 -4.99188,188.1681 l -1.20543,0.75539 -1.18623,-0.67949 z m 353.4925,-53.61332 c -0.3728,-3.52468 2.2612,0.72118 0,0 z m 134.2339,-61.67084 c -6.2382,-38.12574 -2.9114,-80.66712 -2.4356,-120.3587 9.9553,-44.1706 -40.6961,10.0041 -55.5743,6.2649 7.3285,-14.5657 42.9174,-29.3595 59.2152,-29.006 4.4201,35.662 -0.9531,73.0913 1.6225,109.48029 -4.3071,9.16626 6.7077,30.3221 -2.8278,33.61951 z m 120.209,-70.91864 c -0.8547,-39.57016 -3.671,-84.04686 -2.0413,-123.67296 -1.5015,-23.9292 -7.2081,-55.3423 -3.0567,-85.4959 -3.745,-21.8283 8.1621,-59.0524 6.2911,-14.744 -4.2559,74.6743 5.5003,149.2693 4.4061,223.92922 l -2.3625,1.57491 -3.2357,-1.59131 z m -118.5923,-74.08756 c -0.8301,-1.7529 1.2891,0.5072 0,0 z m -108.6164,-26.1376 c -27.0255,-24.8341 -53.5736,-56.2338 -84.2144,-80.4688 -36.04293,-37.3579 -71.65645,-76.1677 -106.11489,-114.3291 41.59072,-25.9843 89.80959,-41.4821 132.41779,-66.5833 37.3976,-19.682 77.57,-33.7295 112.9988,-57.2577 22.2485,2.8406 41.7437,32.3938 63.1541,45.7089 43.3659,31.6274 84.8258,66.3351 131.6918,92.6363 4.968,17.0696 -43.832,-20.5489 -56.8569,-30.5064 -44.8877,-32.0783 -89.3903,-65.0344 -130.6426,-101.7972 -27.1545,9.8475 -51.3323,29.3937 -79.6139,38.5786 -29.3676,13.3724 -59.2118,29.9321 -89.5411,44.5429 -26.06821,10.1562 -49.82043,24.5086 -75.66328,34.9641 45.34826,53.4921 95.00998,103.0882 146.14478,150.9791 15.8483,18.8781 45.2385,53.9864 58.4192,20.2742 2.1216,-0.6968 23.7915,-14.5483 33.3333,-24.1174 11.9887,-12.5547 47.9688,-39.3585 44.0896,-32.0238 2.9348,-3.4846 18.9582,-5.7383 32.6575,-19.1836 36.3137,-26.4899 75.923,-48.4678 113.9139,-72.1424 -9.5182,21.2363 -56.5283,35.6598 -78.4984,54.8313 -45.5558,32.6335 -95.0218,59.6404 -137.7326,95.8588 -11.9831,2.8799 -18.2462,23.1021 -29.9427,20.0355 z m 26.0553,-31.2116 c -5.2407,-7.1598 -17.9436,-28.1351 -3.507,-12.2135 0.7922,3.0416 10.5106,12.0099 3.507,12.2135 z m 40.9041,-36.083 c -17.4353,-6.4929 -20.5828,-20.552 -2.9321,-6.818 -3.2338,1.2095 7.8952,5.2887 2.9321,6.818 z m -71.8726,-3.3467 c -12.1974,-0.3823 -15.165,-23.6875 -7.2645,-9.9868 4.2579,3.1198 -2.8635,3.9212 8.7584,10.0861 l -1.4935,-0.099 z m 111.4585,-20.6435 c 2.6318,-1.0115 -33.3848,-23.0756 -6.6867,-11.9213 -4.1149,3.9437 20.3811,9.0038 6.6867,11.9213 z m -69.7484,-2.1929 c -17.2057,-16.535 2.7716,-8.0234 0,0 z m -80.3555,-5.7562 c -1.0345,-6.8681 -16.0035,-21.1006 -5.7831,-16.3707 2.5535,0.2504 11.5202,16.2685 5.7831,16.3707 z m 114.197,-11.268 c 10.3008,-9.8958 -12.8494,-16.344 -3.1542,-21.1739 3.3396,10.261 15.3835,12.2248 3.8848,20.558 l -0.7307,0.6159 z m 80.0542,-2.9037 c -9.3523,-1.0722 -24.9861,-30.6663 -17.3164,-22.7182 3.8083,6.7557 17.8751,21.7034 16.9254,18.4639 -3.7645,-0.4598 5.7173,6.4496 0.391,4.2543 z m -223.9692,-23.7312 c -22.1769,-23.9099 -16.3293,-31.1664 -0.4666,-1.9874 l 1.179,1.1952 z m 75.6856,-1.1546 c 3.7097,-7.8431 -17.3983,-5.8633 -9.1235,-12.67 1.3513,-2.6581 17.7079,12.3979 9.1235,12.67 z m 108.339,-8.1106 c 1.289,-4.7009 -18.6521,-15.7 -6.8919,-13.9789 4.0321,4.1095 3.4601,8.3258 6.8919,13.9789 z m 77.5882,-1.3308 c -13.1545,-10.4977 -21.2325,-19.7301 -9.4143,-14.0827 -0.8503,4.5524 10.4995,3.0722 11.3594,11.1338 -2.0811,0.5713 1.6015,4.4747 -1.9451,2.9489 z m -142.4609,-12.7298 c -6.9057,-4.195 -7.8533,-13.3551 -15.2005,-17.5418 4.7177,-7.3752 9.4696,9.0868 15.6475,14.4767 0.7699,1.7921 4.0444,2.9868 -0.447,3.0651 z m -75.1356,-8.4331 c -5.1469,-7.458 -20.9028,-25.6753 -18.5474,-24.5764 4.8551,2.3801 27.2274,21.8627 18.5474,24.5764 z m 186.0541,-5.319 c -6.8279,0.1411 -15.8442,-18.5433 -10.2826,-12.3954 2.5996,2.1384 8.5312,7.1577 9.071,9.3241 -0.483,-0.069 3.3723,4.1156 1.2116,3.0713 z m -72.9007,-15.5196 c -14.6665,-11.8902 2.3938,-15.4727 0,0 z m -75.5985,-7.4101 c -25.7297,-27.4702 7.4216,-4.781 0,0 z m -326.76748,-16.3896 c -6.06688,-9.4249 -62.84035,3.1891 -36.93534,-8.0854 10.84601,0.4985 55.11259,3.34 36.93534,8.0854 z m -27.84651,-5.2035 c -0.87003,-1.2567 -0.42666,1.2898 0,0 z m 457.76979,4.4221 c -13.9464,-18.4149 2.0907,-10.4176 0,0 z m -53.8392,-3.5402 c -6.4609,-2.0868 -18.8029,-24.8692 -6.7028,-13.3299 2.3313,8.1311 13.0678,10.3636 6.7028,13.3299 z m -435.15142,0.1882 c -18.92383,-13.9302 -41.55971,-6.6375 -65.21788,-13.6538 -19.49773,-7.2899 29.68176,0.92 40.71153,3.3116 8.61538,0.9564 33.2192,-3.6207 24.50635,10.3422 z m -59.8136,-14.1562 c -3.14686,-2.2829 -2.00355,2.4075 0,0 z m -49.06333,-2.6663 c -13.13244,-11.815 -49.21868,-1.9421 -56.92902,-10.5296 26.78637,-5.1152 48.81756,8.7621 73.20139,0.8122 29.49721,-0.7349 -9.8682,7.4622 -16.27237,9.7174 z m 574.74625,-4.2032 c -5.2152,-6.3243 -24.0512,-32.6592 -7.6431,-14.4119 1.06,2.0771 13.733,14.9872 7.6431,14.4119 z m -362.32944,-2.1249 c -14.39263,-23.1974 -46.30178,-18.3912 -65.55787,-35.8633 -23.78521,-9.4199 27.50146,8.4449 39.37078,14.2277 9.95376,-2.1492 37.73435,20.7392 26.18709,21.6356 z m 1.76389,1.3082 c 0.58209,-1.6471 1.22435,0.6081 0,0 z m -287.70536,-7.4657 c -22.02785,2.1144 -41.14134,-15.6151 -64.99234,-12.2983 4.4628,-12.724 48.07697,10.5421 66.62808,8.0807 10.04526,-7.9109 -1.26043,8.5325 -1.63574,4.2176 z m -11.80297,-1.3954 c -0.9013,-1.2656 -0.90135,1.2656 0,0 z m 12.20262,-2.0261 c -1.82833,-1.5895 -1.63585,3.4409 0,0 z m -81.94689,-7.6244 c -19.3262,-5.3205 -34.2184,-11.0323 -50.8106,-15.1307 -15.3907,10.1791 -77.2086,-11.7692 -31.1927,-1.85 16.065,-4.7141 32.3337,-0.4223 47.4733,0.3508 7.5529,9.8396 34.6059,5.8065 34.53,16.6299 z m 277.17759,-23.2763 c -24.3136,-16.7692 -47.90669,-17.4392 -73.85493,-30.7579 -35.93474,-10.0887 24.23503,1.7073 36.70722,10.3992 9.64512,6.2772 41.85283,7.7676 37.14771,20.3587 z m -102.09073,-36.1176 c -23.69818,-8.1705 -31.22725,-20.5873 -3.68897,-5.5339 1.16192,0.5776 12.57789,5.2744 3.68897,5.5339 z m -18.20648,-11.3889 c -1.84958,-1.2999 -1.84953,1.2999 0,0 z m -7.16974,-6.9346 c -20.24756,-1.4545 -29.77123,-19.8442 -50.04817,-16.8598 20.6399,-4.6932 28.10291,9.0691 48.44401,14.2401 0.46708,0.4561 5.78049,2.5785 1.60416,2.6197 z m -3.41359,-2.2295 c -3.76714,-3.5972 -2.97917,1.3006 0,0 z m -14.88281,-8.363 c 1.54643,-0.5053 0.15289,0.6789 0,0 z m -17.57274,-5.7771 c 1.01607,-0.6722 0.82326,1.2117 0,0 z m -25.93111,-0.3351 c -21.10215,-3.7386 -41.09537,-7.6074 -60.99029,-2.0774 -35.4546,-20.1362 8.9752,2.0619 22.53972,-6.8193 11.17882,1.9271 33.75439,0.3255 38.45057,8.8967 z m -2.29112,-1.3648 c -1.63586,-3.8216 -2.98275,2.0649 0,0 z m -3.27054,-0.2563 c -1.39694,-0.7413 -0.32962,0.795 0,0 z m -54.58503,-1.9146 c -2.2737,-2.4626 -1.2051,1.305 0,0 z m 30.5153,-1.4 c -0.7049,-1.6436 -4.04685,1.252 0,0 z m -76.9938,-0.7126 c 9.2742,-13.3101 36.793,-4.9066 5.1873,-0.1657 l -3.3514,0.2868 z m -17.5048,-10.0271 c -16.9805,-12.045 -52.3074,-8.2261 -60.8191,-19.0199 13.1548,3.3979 74.3062,10.1617 60.8191,19.0199 z m -95.2454,-13.7784 c -13.943,-7.2362 49.1797,-12.0437 6.0206,-1.5875 -1.7997,0.9405 -3.8389,3.127 -6.0206,1.5875 z"
       sodipodi:nodetypes="cccccccccccccccccccccccccccccccccccccscccccccccccccccccccccccccccccccccccccccccccccccccccccccccscccsccccccccscccscccccccccccccccccccccccccccccccccccccccccccccccccccccccccccccccccccccccccccccccccccccccccccccccccccccccccccccccccccc" />
    <path
       id="path2093"
       style="fill:#333333;fill-opacity:1;stroke-width:0.352778"
       d="m -497.21314,496.86713 c -15.04318,2.29369 -15.45341,11.9348 -80.84,9.917 10.9569,-3.7392 25.3087,-5.651 45.6624,-7.3702 31.10333,10.9113 23.67773,-32.60495 25.42383,-54.44845 5.4998,-35.6432 -10.8934,-47.6078 -45.79193,-39.4469 -31.3385,-3.1709 -11.3198,43.17 -22.1964,62.9807 -1.3462,16.2313 -10.3513,53.18327 -7.9506,15.7499 5.32912,-58.60779 3.32323,-39.66607 0.76249,-60.01 1.0821,-25.0344 -4.44249,-31.3392 11.74571,-24.7269 16.4743,2.7789 -27.5444,-8.7012 8.6431,-6.7278 24.4696,0.9568 75.65853,-16.4471 65.02343,27.1802 -3.78021,54.27378 -0.99609,30.69977 -0.48203,76.90245 z m -65.9929,-16.82935 c 0.02,-15.8209 49.02973,-63.8759 31.0741,-37.1526 -11.9002,10.083 -20.5253,29.6638 -31.0741,37.1526 z m 23.5882,-15.7984 c 2.23,-18.3407 20.52853,-9.8255 0,0 z m -20.8406,-5.6777 c 1.2776,-20.8954 41.32833,-41.9162 8.8589,-9.6994 -2.8892,1.7358 -4.5689,11.5584 -8.8589,9.6994 z m 1.0841,-15.0487 c 12.9939,-34.0862 24.7675,-12.2877 0,0 z"
       sodipodi:nodetypes="cccccccccccccccccccccc" />
    <path
       id="path2089"
       style="fill:#333333;fill-opacity:1;stroke-width:0.261694"
       d="m -246.7637,432.26781 c 5.45048,-15.22591 20.9916,-17.18177 30.18892,-27.99778 8.78166,-0.92508 27.06251,-24.59241 6.72204,-6.73495 -10.79071,1.16469 -28.47249,26.81341 -34.13093,23.72583 6.78363,-7.79997 15.6691,-15.36273 28.27046,-25.20636 19.25666,-3.00926 14.65933,-38.6535 15.74037,-58.78173 3.40503,-33.92726 -6.74431,-37.86408 -28.35065,-16.35258 -19.40225,9.98518 -7.0083,42.995 -13.74221,65.04678 -0.83346,14.97666 -6.40869,51.49925 -4.92237,17.24702 2.74709,-63.30888 3.1728,-54.01235 -1.06172,11.048 -1.99382,30.63319 -3.11485,-47.11062 -0.57232,-60.452 0.66995,-22.69309 -0.64431,-30.28521 9.37811,-31.02186 10.19955,-4.26071 -17.05326,3.51961 5.3511,-9.51098 15.1496,-9.14673 46.84163,-45.5291 40.25724,-2.40743 -0.85587,27.26284 1.48087,54.78382 -4.21279,83.76374 -12.04682,14.65048 -25.39634,18.61623 -36.86206,29.1813 -4.06643,0.40488 -8.18165,7.90329 -12.05319,8.453 z m 11.97215,-40.84536 c 0.0124,-14.07006 30.35524,-76.80533 19.23856,-45.71738 -7.36763,13.82386 -12.7076,34.75144 -19.23856,45.71738 z m 14.60391,-23.67897 c 1.38063,-17.21261 12.70959,-17.12011 0,0 z m -12.90281,3.46809 c 0.79098,-19.09417 25.58714,-54.14072 5.48471,-12.24032 -1.78876,2.72317 -2.8287,12.13993 -5.48471,12.24032 z m 0.67118,-13.81848 c 8.04477,-35.6051 15.33402,-21.04039 0,0 z"
       sodipodi:nodetypes="ccccccccssccccccccccccccccc" />
    <path
       id="path1578"
       style="fill:#333333;fill-opacity:1;stroke-width:0.352778"
       d="m -723.15058,517.1039 c 8.8036,-13.08387 33.9056,-3.74597 48.7611,-9.08647 14.18413,5.4791 43.71133,-7.5763 10.85743,-2.5867 -17.42913,-6.7011 -45.98873,9.0283 -55.12823,1.3534 10.9569,-3.7392 25.3087,-5.651 45.6624,-7.3702 31.10333,10.9113 23.67773,-32.60495 25.42383,-54.44845 5.4998,-35.6432 -10.8934,-47.6078 -45.79193,-39.4469 -31.3385,-3.1709 -11.3198,43.17 -22.1964,62.9807 -1.3462,16.2313 -10.3513,53.18327 -7.9506,15.7499 4.4371,-69.1887 5.1247,-58.4132 -1.7149,11.64175 -3.2204,32.9848 -5.0311,-55.31635 -0.9244,-68.43895 1.0821,-25.0344 -1.0407,-34.552 15.1475,-27.9397 16.4743,2.7789 -27.5444,-8.7012 8.6431,-6.7278 24.4696,0.9568 75.65853,-16.4471 65.02343,27.1802 -1.3824,30.0377 2.3919,62.7362 -6.8045,91.11405 -19.458,7.53903 -41.02013,2.0896 -59.53953,5.4636 -6.5681,-2.5636 -13.215,2.81746 -19.4683,0.56157 z m 19.3374,-37.06612 c 0.02,-15.8209 49.02973,-63.8759 31.0741,-37.1526 -11.9002,10.083 -20.5253,29.6638 -31.0741,37.1526 z m 23.5882,-15.7984 c 2.23,-18.3407 20.52853,-9.8255 0,0 z m -20.8406,-5.6777 c 1.2776,-20.8954 41.32833,-41.9162 8.8589,-9.6994 -2.8892,1.7358 -4.5689,11.5584 -8.8589,9.6994 z m 1.0841,-15.0487 c 12.9939,-34.0862 24.7675,-12.2877 0,0 z"
       sodipodi:nodetypes="ccccccccssccccccccccccccccc" />
    <path
       id="path1580"
       style="fill:#333333;fill-opacity:1;stroke-width:0.352778"
       d="m 19.694776,318.25973 c -13.0327005,-14.56991 22.66456,-47.01065 20.35541,-72.47047 3.01037,-28.46778 13.00997,-50.98748 12.21705,-79.79808 12.1406,13.6354 20.65849,20.3013 12.12462,27.6708 -30.48444,19.419 27.23099,-5.7776 -2.68496,9.9117 2.96642,1.2115 24.27193,-7.8823 0.52864,7.8944 -1.11911,3.5464 24.41694,-9.9354 3.78181,7.2481 -25.62431,23.29425 -14.94075,22.48881 6.03419,2.4754 23.08844,-13.7448 -15.68337,17.00757 -20.00686,22.89718 -21.8612,26.66828 22.51364,-11.46459 31.40661,-21.34308 3.63875,11.97738 -40.71527,35.93313 -8.12331,18.55473 33.809484,-17.63183 -10.07731,13.76394 -19.05,21.48558 -23.69424,23.92327 19.80624,-8.90007 29.75797,-16.51826 20.318424,-5.15112 -32.09103,27.80095 -42.54741,37.98847 -23.36226,27.22174 30.68755,-22.15736 41.46791,-24.93982 -7.19162,16.53671 -40.69937,27.06863 -53.28471,46.69903 0.66034,4.22239 -7.23636,12.26798 -11.97696,12.24432 z m 10.4981,-23.29399 c 4.92005,-12.25753 30.13606,-44.81641 28.03842,-42.21282 -18.62206,5.18103 -23.75212,26.95202 -28.03842,42.21282 z m 26.04759,-72.83486 c 8.29144,-11.4781 -14.98564,11.38253 0,0 z m -18.95101,95.04832 c 11.73899,-18.21511 37.72326,-43.54108 57.49268,-47.12835 -17.58092,13.06603 -37.22728,25.48628 -51.0262,44.0643 -0.89793,1.29084 -4.19924,5.58 -6.46648,3.06405 z m 16.78365,-3.58241 c -0.85455,-17.40138 62.748534,-42.42897 23.14903,-17.69276 -10.74368,2.42461 -15.19362,16.61652 -23.14903,17.69276 z m 138.576524,-4.51581 c -27.83454,-47.03507 -39.85419,-102.1527 -47.21989,-155.4783 -28.60191,8.5374 -60.019834,9.2709 -89.115814,2.8855 4.2426,-22.0329 60.159694,-18.3448 82.043324,-12.9229 23.36135,3.6607 11.745,37.4966 21.29165,55.598 6.44762,38.1706 21.98045,75.64495 38.42823,109.16791 l -2.7002,2.465 -2.72715,-1.71482 z M 98.019616,156.60328 c 19.289484,-4.6845 15.708594,-4.5319 22.250024,-8.6157 8.265,1.1379 3.6141,8.6619 16.33936,1.3804 -22.14129,-11.8138 -24.84653,3.9501 -35.56187,4.8024 -8.880934,-0.9924 -4.260654,1.6785 -3.027514,2.4329 z m -23.64666,-3.2212 c -0.2472,-6.0277 17.55782,-2.7311 23.53278,-6.5548 -7.56516,-2.8384 -57.32507,6.7062 -23.53278,6.5548 z m 0.16595,155.17111 c -0.82647,-26.22241 38.645134,-7.99323 11.16284,-3.05986 -2.50531,-5.68702 -8.05308,4.97988 -11.16284,3.05986 z m 0.0417,-56.43926 c -1.92585,-3.1288 1.58434,0.0773 0,0 z M 47.073466,135.30168 c -14.00341,-6.3795 -32.06219,-3.7717 -45.4114905,-13.9385 -11.6097,-11.4899 -32.3959995,-8.6746 -46.6312995,-17.8398 -14.2163,-15.854497 -57.652396,1.4491 -56.520296,-8.268597 32.534296,-11.4851 58.319896,8.399497 89.681396,13.376797 18.7301995,12.4044 44.38856,14.297 59.4431,22.7443 -1.31465,1.3851 4.0821,4.9301 -0.56141,3.9258 z m -1.78679,-5.5166 c -2.84755,-2.2119 -3.41905,1.6373 0,0 z m 94.448994,2.8885 c -20.64235,-33.058697 13.01025,-12.145 -3e-5,0 z m -16.35429,-24.698 c -18.70029,-2.9566 -42.711854,-42.555897 -14.21854,-14.740797 0.83994,6.2172 34.34236,16.917397 14.21854,14.740797 z m -232.4879,-9.061497 c -7.1276,-18.8509 -54.1021,-19.0809 -41.9813,-21.5423 13.8423,-9.0008 45.5804,15.1941 41.9813,21.5423 z m -64.7852,-12.444 c -0.448,-17.6714 -37.8991,-17.3628 -34.1466,-35.8799 14.8829,13.3387 31.2316,22.7544 43.8158,32.4034 3.9266,4.6416 -7.9267,5.9429 -9.6692,3.4765 z m 259.309776,-6.5481 c -3.35013,-4.474 -27.1905,-14.7534 1.20099,-7.4873 3.17064,0.2922 3.03271,12.8028 -1.20099,7.4873 z m -0.9175,-6.7108 c -1.72553,-3.4928 -2.14269,1.5873 0,0 z m -23.01875,-17.8441 c -3.54954,-5.8534 6.45946,4.473 0,0 z m -7.69906,-0.5972 c -12.2255,-4.8951 -31.30147,-8.1315 -44.0881705,-17.4752 15.0420005,3.6365 29.9109705,9.7759 41.9472305,11.6072 4.79491,-1.3603 8.90735,8.9784 2.14094,5.868 z M -2.1064245,32.257783 C -13.865424,15.849183 -47.222724,16.293483 -53.167424,3.7933828 c 18.3158,6.1888 38.0392,11.8117002 51.9069995,24.8541002 11.4401005,4.6307 9.2055,5.441 -0.846,3.6103 z M -66.364624,-0.4541172 c -29.8958,-5.6576 8.5732,-18.5703998 0,0 z"
       sodipodi:nodetypes="cccccccccccccccccccccccccccccccccccccccccccccccccccccccccccccccccccccccccccccccccccccccccc" />
    <path
       id="path4267"
       style="fill:#333333;stroke-width:0.352778;fill-opacity:1"
       d="m -335.084,546.22981 c -2.1842,-2.1747 -1.75128,-5.48898 -1.96155,-8.2932 0.42314,-2.14254 -1.8494,-2.40583 -2.90563,-0.93189 -1.56069,1.06179 -3.27052,2.03512 -5.13389,2.40856 -2.38899,0.47314 -4.20302,-2.06788 -3.00562,-4.19044 0.27547,-2.52782 3.32385,-1.17868 4.6599,-2.54948 2.00412,-1.75005 4.24488,-3.33683 6.68585,-4.42721 1.58464,-0.54114 3.34171,-0.17601 4.83436,0.41442 1.53295,1.07141 0.36466,3.07353 0.69971,4.59071 0.0869,1.86647 -0.0624,3.99397 1.2522,5.48641 0.90957,1.67345 1.26941,4.09539 -0.58704,5.28039 -1.31616,0.88152 -2.45847,4.16299 -4.27864,2.50179 z" />
    <rect
       style="fill:#008cba;fill-opacity:1;stroke:none;stroke-width:0.499999;stroke-linecap:round;stroke-linejoin:round"
       id="rect1941"
       width="280.09848"
       height="102.6315"
       x="-1408.0485"
       y="-433.90637"
       ry="0.85192132" />
    <rect
       style="fill:#008cba;fill-opacity:0.65;stroke:none;stroke-width:0.499999;stroke-linecap:round;stroke-linejoin:round"
       id="rect1929"
       width="280.09848"
       height="102.6315"
       x="-1408.0485"
       y="-331.2749"
       ry="0.85192132" />
    <rect
       style="fill:#006687;fill-opacity:1;stroke:none;stroke-width:0.499999;stroke-linecap:round;stroke-linejoin:round"
       id="rect1913"
       width="280.09848"
       height="102.6315"
       x="-1408.0485"
       y="-536.53778"
       ry="0.85192132" />
    <text
       xml:space="preserve"
       style="font-style:italic;font-size:66.4468px;line-height:1.25;font-family:Caveat;-inkscape-font-specification:'Caveat Italic';letter-spacing:0px;word-spacing:0px;stroke-width:0.889914"
       x="-1406.8326"
       y="-147.71837"
       id="text1907"><tspan
         sodipodi:role="line"
         id="tspan1905"
         x="-1406.8326"
         y="-147.71837"
         style="stroke-width:0.889914">primary</tspan></text>
    <text
       xml:space="preserve"
       style="font-style:italic;font-size:66.4468px;line-height:1.25;font-family:Caveat;-inkscape-font-specification:'Caveat Italic';letter-spacing:0px;word-spacing:0px;stroke-width:0.889914"
       x="-1674.684"
       y="-363.77649"
       id="text1955"><tspan
         sodipodi:role="line"
         id="tspan1953"
         x="-1674.684"
         y="-363.77649"
         style="stroke-width:0.889914">Main</tspan></text>
    <text
       xml:space="preserve"
       style="font-style:italic;font-size:66.4468px;line-height:1.25;font-family:Caveat;-inkscape-font-specification:'Caveat Italic';letter-spacing:0px;word-spacing:0px;stroke-width:0.889914"
       x="-1674.684"
       y="-254.91933"
       id="text1927"><tspan
         sodipodi:role="line"
         id="tspan1925"
         x="-1674.684"
         y="-254.91933"
         style="stroke-width:0.889914">Disabled</tspan></text>
    <text
       xml:space="preserve"
       style="font-style:italic;font-size:66.4468px;line-height:1.25;font-family:Caveat;-inkscape-font-specification:'Caveat Italic';letter-spacing:0px;word-spacing:0px;stroke-width:0.889914"
       x="-1674.684"
       y="-499.84784"
       id="text1911"><tspan
         sodipodi:role="line"
         id="tspan1909"
         x="-1674.684"
         y="-499.84784"
         style="stroke-width:0.889914">Active</tspan></text>
    <text
       xml:space="preserve"
       style="font-style:italic;font-size:66.4468px;line-height:1.25;font-family:Caveat;-inkscape-font-specification:'Caveat Italic';letter-spacing:0px;word-spacing:0px;stroke-width:0.889914"
       x="-1101.0747"
       y="-159.81361"
       id="text1891"><tspan
         sodipodi:role="line"
         id="tspan1889"
         x="-1101.0747"
         y="-159.81361"
         style="stroke-width:0.889914">secondary</tspan></text>
    <text
       xml:space="preserve"
       style="font-style:italic;font-size:66.4468px;line-height:1.25;font-family:Caveat;-inkscape-font-specification:'Caveat Italic';letter-spacing:0px;word-spacing:0px;stroke-width:0.889914"
       x="-784.6275"
       y="-156.78981"
       id="text1895"><tspan
         sodipodi:role="line"
         id="tspan1893"
         x="-784.6275"
         y="-156.78981"
         style="stroke-width:0.889914">success</tspan></text>
    <text
       xml:space="preserve"
       style="font-style:italic;font-size:66.4468px;line-height:1.25;font-family:Caveat;-inkscape-font-specification:'Caveat Italic';letter-spacing:0px;word-spacing:0px;stroke-width:0.889914"
       x="-500.77158"
       y="-147.71837"
       id="text1899"><tspan
         sodipodi:role="line"
         id="tspan1897"
         x="-500.77158"
         y="-147.71837"
         style="stroke-width:0.889914">info</tspan></text>
    <text
       xml:space="preserve"
       style="font-style:italic;font-size:66.4468px;line-height:1.25;font-family:Caveat;-inkscape-font-specification:'Caveat Italic';letter-spacing:0px;word-spacing:0px;stroke-width:0.889914"
       x="-224.9494"
       y="-147.71837"
       id="text1903"><tspan
         sodipodi:role="line"
         id="tspan1901"
         x="-224.9494"
         y="-147.71837"
         style="stroke-width:0.889914">warning</tspan></text>
    <text
       xml:space="preserve"
       style="font-style:italic;font-size:66.4468px;line-height:1.25;font-family:Caveat;-inkscape-font-specification:'Caveat Italic';letter-spacing:0px;word-spacing:0px;stroke-width:0.889914"
       x="67.977982"
       y="-147.71837"
       id="text1855"><tspan
         sodipodi:role="line"
         id="tspan1853"
         x="67.977982"
         y="-147.71837"
         style="stroke-width:0.889914">danger</tspan></text>
    <rect
       style="fill:#eeeeee;fill-opacity:1;stroke:none;stroke-width:0.499999;stroke-linecap:round;stroke-linejoin:round"
       id="rect1943"
       width="280.09848"
       height="102.6315"
       x="-1127.9501"
       y="-433.90637"
       ry="0.85192132" />
    <rect
       style="fill:#f8f9fa;fill-opacity:1;stroke:none;stroke-width:0.499999;stroke-linecap:round;stroke-linejoin:round"
       id="rect2029"
       width="280.09848"
       height="102.6315"
       x="-1127.9501"
       y="-331.2749"
       ry="0.85192132" />
    <rect
       style="fill:#dee2e6;fill-opacity:1;stroke:none;stroke-width:0.499999;stroke-linecap:round;stroke-linejoin:round"
       id="rect2031"
       width="280.09848"
       height="102.6315"
       x="-1127.9501"
       y="-536.5379"
       ry="0.85192132" />
    <rect
       style="fill:#cccccc;fill-opacity:1;stroke:none;stroke-width:0.499999;stroke-linecap:round;stroke-linejoin:round"
       id="rect2033"
       width="280.09848"
       height="102.6315"
       x="-1127.95"
       y="-639.16919"
       ry="0.85192132" />
    <rect
       style="fill:#adb5bd;fill-opacity:1;stroke:none;stroke-width:0.499999;stroke-linecap:round;stroke-linejoin:round"
       id="rect2035"
       width="280.09848"
       height="102.6315"
       x="-1127.95"
       y="-741.80072"
       ry="0.85192132" />
    <rect
       style="fill:#888888;fill-opacity:1;stroke:none;stroke-width:0.499999;stroke-linecap:round;stroke-linejoin:round"
       id="rect2037"
       width="280.09848"
       height="102.6315"
       x="-1127.95"
       y="-844.43219"
       ry="0.85192132" />
    <rect
       style="fill:#495057;fill-opacity:1;stroke:none;stroke-width:0.499999;stroke-linecap:round;stroke-linejoin:round"
       id="rect2039"
       width="280.09848"
       height="102.6315"
       x="-1127.95"
       y="-947.06366"
       ry="0.85192132" />
    <rect
       style="fill:#333333;fill-opacity:1;stroke:none;stroke-width:0.499999;stroke-linecap:round;stroke-linejoin:round"
       id="rect2041"
       width="280.09848"
       height="102.6315"
       x="-1127.95"
       y="-1049.6951"
       ry="0.85192132" />
    <rect
       style="fill:#222222;fill-opacity:1;stroke:none;stroke-width:0.499999;stroke-linecap:round;stroke-linejoin:round"
       id="rect1931"
       width="280.09848"
       height="102.6315"
       x="-1127.95"
       y="-1152.3267"
       ry="0.85192132" />
    <rect
       style="fill:#43ac6a;fill-opacity:1;stroke:none;stroke-width:0.499999;stroke-linecap:round;stroke-linejoin:round"
       id="rect1945"
       width="280.09848"
       height="102.6315"
       x="-847.85162"
       y="-433.90637"
       ry="0.85192132" />
    <rect
       style="fill:#43ac6a;fill-opacity:0.65;stroke:none;stroke-width:0.499999;stroke-linecap:round;stroke-linejoin:round"
       id="rect1933"
       width="280.09848"
       height="102.6315"
       x="-847.85162"
       y="-331.2749"
       ry="0.85192132" />
    <rect
       style="fill:#358753;fill-opacity:1;stroke:none;stroke-width:0.499999;stroke-linecap:round;stroke-linejoin:round"
       id="rect1917"
       width="280.09848"
       height="102.6315"
       x="-847.85162"
       y="-536.53778"
       ry="0.85192132" />
    <rect
       style="fill:#5bc0de;fill-opacity:1;stroke:none;stroke-width:0.499999;stroke-linecap:round;stroke-linejoin:round"
       id="rect1947"
       width="280.09848"
       height="102.6315"
       x="-567.75311"
       y="-433.90637"
       ry="0.85192132" />
    <rect
       style="fill:#5bc0de;fill-opacity:0.65;stroke:none;stroke-width:0.499999;stroke-linecap:round;stroke-linejoin:round"
       id="rect1935"
       width="280.09848"
       height="102.6315"
       x="-567.75311"
       y="-331.2749"
       ry="0.85192132" />
    <rect
       style="fill:#31b0d5;fill-opacity:1;stroke:none;stroke-width:0.499999;stroke-linecap:round;stroke-linejoin:round"
       id="rect1919"
       width="280.09848"
       height="102.6315"
       x="-567.75311"
       y="-536.53778"
       ry="0.85192132" />
    <rect
       style="fill:#e99002;fill-opacity:1;stroke:none;stroke-width:0.499999;stroke-linecap:round;stroke-linejoin:round"
       id="rect1949"
       width="280.09848"
       height="102.6315"
       x="-287.65463"
       y="-433.90637"
       ry="0.85192132" />
    <rect
       style="fill:#e99002;fill-opacity:0.65;stroke:none;stroke-width:0.499999;stroke-linecap:round;stroke-linejoin:round"
       id="rect1937"
       width="280.09848"
       height="102.6315"
       x="-287.65463"
       y="-331.2749"
       ry="0.85192132" />
    <rect
       style="fill:#b67102;fill-opacity:1;stroke:none;stroke-width:0.499999;stroke-linecap:round;stroke-linejoin:round"
       id="rect1921"
       width="280.09848"
       height="102.6315"
       x="-287.65463"
       y="-536.53778"
       ry="0.85192132" />
    <rect
       style="fill:#f04124;fill-opacity:1;stroke:none;stroke-width:0.499999;stroke-linecap:round;stroke-linejoin:round"
       id="rect1951"
       width="280.09848"
       height="102.6315"
       x="-7.5561585"
       y="-433.90637"
       ry="0.85192132" />
    <rect
       style="fill:#f04124;fill-opacity:0.65;stroke:none;stroke-width:0.499999;stroke-linecap:round;stroke-linejoin:round"
       id="rect1939"
       width="280.09848"
       height="102.6315"
       x="-7.5561585"
       y="-331.2749"
       ry="0.85192132" />
    <rect
       style="fill:#d32a0e;fill-opacity:1;stroke:none;stroke-width:0.499999;stroke-linecap:round;stroke-linejoin:round"
       id="rect1923"
       width="280.09848"
       height="102.6315"
       x="-7.5561585"
       y="-536.53778"
       ry="0.85192132" />
    <path
       style="fill:#333333;fill-opacity:1;stroke:none;stroke-width:0.499999;stroke-linecap:round;stroke-linejoin:round"
       d="m -663.0957,202.05576 c 0,0 7.75084,-3.34087 8.15173,-6.1472 0.4009,-2.80633 3.47451,-2.67269 3.47451,-2.67269 l -7.88445,11.22532 z"
       id="path2074" />
    <path
       style="fill:#333333;fill-opacity:1;stroke:none;stroke-width:0.499999;stroke-linecap:round;stroke-linejoin:round"
       d="m -703.18611,203.39211 c 1.87087,-1.87089 15.76891,-9.6217 17.77342,-10.28988 2.00451,-0.66817 13.898,0.66818 18.17433,0 4.2763,-0.66817 17.10523,-1.33635 15.50162,0 -1.60361,1.33635 -6.41445,1.46998 -7.61717,1.33635 -1.20272,-0.13364 -17.50615,0 -20.44613,0.13363 -2.93997,0.13364 -5.21176,0.53454 -5.21176,0.53454 0,0 -10.82442,9.35444 -13.22983,9.35444 -2.40543,0 -4.94448,-1.06908 -4.94448,-1.06908 z"
       id="path2076" />
    <path
       style="fill:#333333;fill-opacity:1;stroke:none;stroke-width:0.499999;stroke-linecap:round;stroke-linejoin:round"
       d="m -651.69019,192.76409 c 1.96075,2.22917 -0.98198,7.28715 0.35435,13.30071 1.33635,6.01357 0.95997,18.27662 0.66818,24.05426 -0.2902,5.74629 1.45336,21.14559 0.4104,20.092 -1.04296,-1.05359 -2.94945,-13.14299 -2.81581,-20.092 0.13361,-6.94901 0.26725,-11.49259 0,-16.16981 -0.26728,-4.67721 -1.91143,-14.96107 -1.91143,-16.16378 0,-1.20272 3.29431,-5.02138 3.29431,-5.02138 z"
       id="path2078"
       sodipodi:nodetypes="csszsssc" />
  </g>
  <g
     inkscape:groupmode="layer"
     id="layer7"
     inkscape:label="Car"
     style="display:inline">
    <g
       id="g2259">
      <path
         style="fill:#008cba;fill-opacity:0.65098;stroke:none;stroke-width:0.499999;stroke-linecap:round;stroke-linejoin:round"
         d="m -1064.003,545.04166 c 0,0 -3.5907,-9.44941 -3.7797,-12.85118 -0.189,-3.4018 -0.2835,-13.13469 0.378,-16.63097 0.6614,-3.49628 2.2678,-10.77233 2.8348,-14.45757 0.5669,-3.68528 2.8348,-24.75746 2.8348,-24.75746 0,0 53.9561,0.66146 56.5074,0.85045 2.5514,0.18899 10.96135,1.7009 20.31625,0.75596 9.3549,-0.94495 27.68677,-2.07888 28.44271,-2.07888 0.75594,0 14.07962,3.02382 14.07962,3.02382 0,0 14.07962,26.9308 15.40253,28.25371 1.32292,1.32292 7.55952,10.86681 8.59896,12.18973 1.03942,1.32291 3.87424,16.72545 3.96875,18.52083 0.0945,1.79541 -14.4576,0.56698 -14.4576,0.56698 l -54.14507,2.64583 -46.96355,3.87427 -24.474,2.9293 z"
         id="path2213" />
      <path
         style="display:inline;fill:#008cba;fill-opacity:1;stroke:none;stroke-width:0.499999;stroke-linecap:round;stroke-linejoin:round"
         d="m -1065.8928,547.12052 -1.134,25.13541 4.5357,51.40479 0.378,11.52826 14.7411,-0.18899 7.9375,-3.96875 7.7485,-13.04017 26.4583,-11.71726 25.51344,-1.32292 16.81993,15.68601 11.52827,19.65476 18.14285,2.83482 11.71728,-7.7485 6.04761,-37.79764 4.91368,-61.23212 -15.68601,1.70087 -39.4985,0.37799 -60.09825,6.2366 -33.6398,2.83482 z"
         id="path2202" />
      <path
         style="display:inline;fill:#008cba;fill-opacity:1;stroke:none;stroke-width:0.499999;stroke-linecap:round;stroke-linejoin:round"
         d="m -1059.2783,636.13392 -6.8035,-25.70237 -0.945,-31.75 -1.3229,-30.61607 -57.2634,4.72469 -36.8527,2.26785 -3.3743,0.17164 c -5.5736,9.02384 -5.6448,15.50808 -6.831,22.50693 l 1.0881,20.03274 3.4974,11.54727 34.724,35.32179 z"
         id="path2204"
         sodipodi:nodetypes="cccccccccccc" />
      <path
         style="display:inline;fill:#008cba;fill-opacity:0.65098;stroke:none;stroke-width:0.499999;stroke-linecap:round;stroke-linejoin:round"
         d="m -1172.6711,617.99107 4.5357,-22.86757 -3.5908,-19.84375 7.1213,-20.12839 -70.4323,21.45131 -17.0089,10.39434 -3.9688,10.20537 13.0402,-1.88989 4.7247,12.09524 -4.7247,9.6384 -15.875,5.66963 -0.567,10.20537 2.8349,18.7098 13.2291,3.77979 22.1116,-6.99257 z"
         id="path2206"
         sodipodi:nodetypes="cccccccccccccccc" />
      <path
         style="fill:#008cba;fill-opacity:0.65098;stroke:none;stroke-width:0.499999;stroke-linecap:round;stroke-linejoin:round"
         d="m -1065.3259,541.45089 c -1.3229,-7.37055 -0.7559,-10.58333 -1.8899,-15.875 -1.1339,-5.29166 6.4256,-34.9628 6.9926,-38.55357 0.567,-3.59077 1.3229,-10.77233 1.3229,-10.77233 l -41.5774,-1.88989 -31.939,4.72472 c 0,0 -10.0163,16.06399 -10.0163,18.52083 0,2.45684 -2.8348,11.33928 -5.1027,14.93007 -2.2679,3.59077 -19.2768,34.20684 -23.2455,37.60861 -3.9688,3.40181 -7.5596,9.07143 -7.5596,9.07143 0,0 0,4.91371 4.1578,3.96875 4.1577,-0.94493 7.7485,-7.18153 11.9062,-8.50445 4.1578,-1.32292 24.9465,-1.88989 24.9465,-1.88989 l 37.9866,-1.88987 25.7024,-3.02382 z"
         id="path2215" />
      <path
         style="display:inline;fill:#adb5bd;fill-opacity:1;stroke:none;stroke-width:0.499999;stroke-linecap:round;stroke-linejoin:round"
         d="m -1077.7991,529.9226 v -20.22171 l 3.2128,-11.90625 -5.1027,-14.93006 -23.8125,-0.18899 -20.2217,8.31548 -8.8824,19.46577 -13.7962,26.64732 -1.3229,10.01636 18.7098,-1.88987 24.3795,-2.64583 19.8437,-4.72472 z"
         id="path2200" />
      <path
         style="display:inline;fill:#888888;fill-opacity:1;stroke:none;stroke-width:0.499999;stroke-linecap:round;stroke-linejoin:round"
         d="m -1047.939,533.89135 13.0402,0.37798 34.0179,-2.07885 22.67852,-1.13393 28.9152,-1.88989 16.44195,-5.85864 -5.85862,-9.07143 -8.50447,-15.875 -24.19048,-10.96129 -39.8765,1.88987 -21.5446,0.37798 -14.1741,6.42559 -5.4807,20.78869 z"
         id="path2198" />
      <path
         id="path2754"
         style="fill:#333333;fill-opacity:1;stroke-width:0.352778"
         d="m -1224.3775,701.23725 c -25.2789,-6.95904 89.1682,-7.51971 31.8045,-14.34123 -27.9141,0.10072 -13.9383,-45.75916 -39.3626,-33.52006 -26.0904,18.08934 -62.6304,-15.35106 -32.3507,-27.28503 0.389,-17.08004 6.1977,-46.30696 27.0758,-29.89147 15.2986,32.87644 -32.69,15.01535 -17.2424,46.95169 4.0583,13.10901 32.4442,9.08245 35.323,-6.29924 4.7775,-18.83223 22.6706,-30.38285 41.4517,-33.38166 23.7594,-4.95887 42.551,16.00024 46.8087,37.7252 27.2212,1.84105 59.3372,-13.96185 84.8414,-5.5204 -24.7118,5.04546 -62.5161,9.9892 -87.8207,12.1301 1.0976,18.73415 -13.5661,34.03607 -28.4836,40.52695 18.6855,-3.46412 82.5049,-6.28518 30.8681,0.3537 -31.0021,3.78781 -61.8335,9.9624 -92.9132,12.55145 z m 54.9885,-11.528 c -0.8121,-0.9775 -3.8116,1.13389 0,0 z m 5.0664,-0.87334 c -3.7927,-0.32032 -3.5366,1.58791 0,0 z m -95.8761,-42.95071 c 0.2577,-18.69003 -8.0796,9.16798 -1.9209,-12.3098 -4.5541,-8.84702 -9.5189,7.71188 -2.5193,15.04382 0.8462,1.32633 7.1179,2.63723 4.4402,-2.73402 z m 6.7898,-29.51472 c 23.0367,3.41685 4.0478,-32.75231 -0.7932,-8.6735 2.8584,1.70371 -8.6496,12.67227 0.7932,8.6735 z m 239.5628,80.89346 c 17.76956,-9.50181 70.30007,-5.31699 100.25171,-7.90776 -20.10978,6.00368 -70.15107,4.37943 -100.25171,7.90776 z m 134.79313,-6.24003 c -9.82451,0.34335 -42.33083,-19.58027 -24.34167,-16.16001 24.46188,-3.34859 24.90928,0.0979 4.64951,5.63527 0.62439,8.09779 35.9445,5.14882 19.69216,10.52474 z m -384.45963,-6.95424 c 5.8903,-6.57021 48.8494,-14.94126 19.3612,-3.87681 -4.0724,0.54666 -17.8475,8.54194 -19.3612,3.87681 z m 268.37751,1.63306 c -24.93261,-7.74648 -81.73071,2.21308 -80.23871,-3.69934 15.8895,-8.42394 78.16054,9.63361 42.9182,-16.49348 -17.5059,-32.68374 18.6991,-67.71732 50.66023,-51.00436 15.48953,-2.64758 31.99081,43.0506 22.71459,16.41403 -12.76134,-33.12757 -65.24882,-29.28236 -79.10102,1.82458 -18.8172,7.25522 23.2895,-42.1532 44.51077,-31.00941 36.77803,-9.65891 31.96547,47.64642 61.34862,36.24739 19.8973,-6.3784 -30.95213,1.34513 -14.56669,-24.72915 0.46293,-13.46764 34.3495,-1.10315 30.36307,-21.90111 3.03508,-28.06674 0.0977,-61.51829 5.9171,-86.82056 31.28963,-7.0136 33.56152,20.8327 26.42638,47.97929 -4.69418,22.30584 3.86683,54.7758 -30.31337,44.12186 -4.29572,22.98732 6.259,52.84472 -29.73251,48.63539 -25.52046,-6.15658 -15.35586,48.24899 -50.90666,40.43487 z m -102.49731,-10.58534 c 15.1681,-13.00974 82.6313,-3.2381 27.3739,-2.66343 -9.1444,0.0897 -18.3253,3.10984 -27.3739,2.66343 z m 162.3996,-8.21297 c 9.78054,-9.68728 87.90508,-4.76669 35.25346,-2.7178 -11.77249,0.65348 -23.47146,2.25811 -35.25346,2.7178 z m -127.1384,-36.00763 c -8.0333,-21.08986 -7.4158,-53.30514 -7.1025,-78.48701 -25.9586,-5.63251 -75.2365,9.41357 -98.029,3.35257 28.2775,-14.99459 80.4024,4.46514 97.9415,-19.50311 -4.4843,-18.96104 10.1504,-83.15888 6.489,-30.69166 -9.1723,32.34449 2.8736,46.45144 35.2014,36.28989 33.07508,0.78154 77.51751,-14.99573 103.70523,-3.1532 -46.46191,2.28533 -92.83033,6.86508 -139.14953,11.12316 -4.3851,26.13894 7.1723,58.93252 0.9439,81.06936 z m -109.9569,-31.62021 c -10.2139,-23.40527 7.4075,-37.75434 3.2918,-3.22113 -0.8695,0.88913 -1.076,5.42226 -3.2918,3.22113 z m -84.3072,-10.02715 c 18.2605,-20.25379 55.5104,-21.63277 80.261,-34.82185 19.2002,-22.85857 29.2872,-51.41088 42.2343,-77.77029 60.6961,-8.15404 122.2408,0.77325 183.31458,-1.94723 -13.90695,12.72762 -62.06598,1.20973 -87.00868,4.41288 -33.1207,5.22002 -91.3409,-20.57833 -102.9734,23.09371 -13.3822,27.61396 -25.7296,63.97436 -61.1409,67.58252 -18.912,4.4241 -36.2502,16.05585 -54.6869,19.45026 z m 154.6008,-8.07369 c 2.356,-21.75351 46.1978,-1.69691 3.0139,0.47515 l -3.0139,-0.47512 z m -48.8192,-32.97832 c -0.76,-17.87842 21.5891,-40.58557 26.706,-62.66176 20.3718,-6.73362 67.0851,-13.77041 47.4895,23.09946 13.7822,44.62747 -37.5785,33.04049 -65.2142,39.29511 l -6.6136,0.5402 -2.3677,-0.27298 z m 19.1334,-3.31448 c 9.0084,-14.81489 62.1316,7.49154 49.441,-28.73139 18.8139,-34.53393 -16.2053,-38.00539 -39.2401,-22.96795 0.5368,14.06364 -45.8179,58.87765 -10.2009,51.69934 z m 21.0296,-19.90478 c 0.067,-11.72695 20.9851,-8.33375 0,0 z m -11.0636,-2.99399 c 12.4829,-21.67009 37.0936,-16.75059 0,0 z m -4.8781,-5.90318 c 8.5996,-16.41814 40.9886,-21.78601 7.8974,-3.50632 -2.262,1.80186 -4.8197,3.6494 -7.8974,3.50632 z m 77.3272,20.96071 c -9.1558,-13.8483 -11.0938,-60.99345 20.768,-48.43378 30.5759,1.51251 79.38322,-18.5628 90.60279,22.18489 34.8453,37.37041 -44.18119,15.27798 -62.59709,24.86358 -16.2527,0.60837 -32.5165,0.93924 -48.7737,1.38531 z m 16.2648,-5.43433 c 28.6493,-4.33718 79.40728,2.28299 94.93391,-10.95978 -10.1623,-33.55011 -39.23157,-32.89439 -73.05221,-28.88792 -30.2979,-12.20921 -50.2775,27.56216 -30.585,40.00876 l 8.7032,-0.16118 z m 38.36454,-10.91209 c -0.71345,-12.14203 16.15554,0.55275 0,0 z m -19.46944,-1.68151 c 14.76423,-21.44257 38.23459,-8.20448 0,0 z m -19.71,-2.93635 c 12.1018,-19.96679 39.17949,-16.15634 6.8203,-3.45944 -2.6631,0.4939 -3.889,3.80512 -6.8203,3.45944 z m 94.47736,0.074 c -1.84956,-1.29991 -1.84956,1.29991 0,0 z m 17.94312,3.56418 c -9.74569,-8.83502 -32.49701,-53.76347 -15.84881,-37.60707 0.0902,9.14184 32.36694,42.67467 15.84881,37.60707 z"
         sodipodi:nodetypes="ccccccccccccccccccccccccccccccccccccccccccccccccccccccccccccccccccccccccccccsccsscccccscccccccccccccccccccccccccccccccccc" />
    </g>
  </g>
  <g
     inkscape:groupmode="layer"
     id="layer6"
     inkscape:label="EBikeBig"
     style="display:inline">
    <g
       id="g2248"
       style="display:inline">
      <path
         style="fill:#43ac6a;fill-opacity:1;stroke:none;stroke-width:0.499999;stroke-linecap:round;stroke-linejoin:round"
         d="m 34.036478,649.20727 13.002959,1.05947 12.294399,2.93997 7.768153,-1.01917 16.553373,3.95914 13.630746,-4.54358 16.303442,4.54358 20.84702,-0.53454 18.17433,-2.93997 6.1472,-0.26725 16.83798,0.26725 5.87993,-23.78699 2.93996,-14.16526 8.28536,-25.39061 -1.87089,-8.28537 -11.22532,-10.15625 -69.75734,-1.60361 -41.426782,1.60361 H 40.357697 l -15.501631,6.41448 6.681738,25.92515 -0.801809,28.86511 -0.267269,13.63073 z"
         id="path2053" />
      <path
         style="fill:#006687;fill-opacity:1;stroke:none;stroke-width:0.499999;stroke-linecap:round;stroke-linejoin:round"
         d="m -134.36975,566.34411 8.41899,-2.67269 13.89801,-0.0668 5.47903,5.87992 -19.17659,-0.4677 z"
         id="path2059" />
      <path
         style="fill:#008cba;fill-opacity:1;stroke:none;stroke-width:0.499999;stroke-linecap:round;stroke-linejoin:round"
         d="m -156.00967,563.65698 5.10268,-1.51189 9.16592,1.79539 24.09598,-2.45684 8.97694,2.55132 5.85863,8.12649 7.559521,5.10268 6.52009,-4.5357 0.188987,-7.74854 -2.645834,-7.654 -24.001484,-3.02381 -36.00223,-0.85045 -11.05581,4.91368 2.83482,5.66965 z"
         id="path2057" />
      <path
         style="fill:#006687;fill-opacity:1;stroke:none;stroke-width:0.499999;stroke-linecap:round;stroke-linejoin:round"
         d="m -152.87817,570.15271 7.34991,-4.81084 -6.08038,-3.94224 -5.61266,2.87316 -0.33409,4.74404 z"
         id="path2061" />
      <path
         id="path4262"
         style="fill:#333333;fill-opacity:1;stroke-width:0.352778"
         d="m 106.26579,702.65407 c -6.68526,-3.1165 -17.77021,0.67624 -22.1222,-8.1819 -11.38662,-11.63733 -22.0904,-24.92678 -17.0416,-42.28462 -1.24112,-17.44794 11.22565,-31.30911 24.79211,-39.89294 13.80539,-8.28837 30.52766,-7.6648 44.35929,-2.40474 12.35833,4.69978 21.70153,16.44327 24.20833,34.07624 1.1076,7.79065 -3.9832,30.00436 -6.7255,22.62867 -3.7673,-2.55899 2.4863,-20.23907 -10.8493,-9.80938 -9.16685,5.39124 -24.01817,-4.47237 -6.85243,-3.78323 9.83063,-3.00732 24.70073,3.96713 18.95743,-10.78078 -3.0097,-10.44949 -5.2516,-10.31254 -14.7618,-19.6567 -14.50919,-16.28365 -22.25504,-10.26774 -35.41753,-6.48395 -6.48432,4.04519 -10.32537,5.77677 -13.6648,11.16118 -12.95048,11.75949 -20.09561,33.93154 -10.1526,49.64003 6.60941,18.92851 33.06921,23.42767 48.5987,13.06128 5.77057,-5.79239 4.93464,6.52465 9.4275,-4.18182 5.16613,-3.8826 9.83303,-21.25894 15.35033,-15.68775 -4.6476,11.46762 -13.961,28.75236 -29.54103,30.99718 -5.64808,0.30141 -13.65111,5.12179 -18.5649,1.58323 z m 48.30713,-10.04588 c -7.7023,-6.00575 11.3838,-22.28203 14.1819,-16.31711 -0.034,13.27271 8.9785,-23.60476 13.2874,-7.61834 0.01,6.18238 -1.3769,24.16843 2.6388,8.58884 5.6137,-22.53958 17.8853,8.51697 8.8569,6.04165 2.6151,-20.76964 -10.2559,-0.25854 -13.4574,7.51701 -5.0441,-4.03243 0.6332,-32.5798 -6.1027,-13.76063 -1.0336,11.30605 -3.8928,12.31716 -11.66,10.74883 -6.9504,-1.59943 -1.5527,7.67159 -7.7449,4.79975 z m 26.0435,-6.09759 c -1.8616,-1.03338 -1.2653,1.1996 0,0 z m 27.6149,-1.19507 c -1.293,-5.70676 0.1616,-14.6194 -6.5794,-3.80626 -5.5673,5.29718 3.6528,-20.34007 9.4796,-4.11036 -5.7806,9.29336 3.7403,6.86411 3.926,0.54187 6.1819,-1.83349 14.5759,6.36547 20.10827,0.58166 -6.94197,11.9402 -18.55117,-1.09639 -23.45967,8.24435 l -2.0183,-0.12925 z m -5.3978,-8.09159 c -1.0624,-1.82329 -0.056,2.37219 0,0 z m -265.14173,7.5723 c -3.75766,-15.89763 25.10834,-3.26221 9.25056,-3.32857 -4.22645,-5.40633 -3.57175,6.12202 -9.25056,3.32857 z m 59.8818,-2.00477 c 1.56401,-7.0481 -18.5626,-24.4799 -5.1185,-18.8409 4.24398,5.02223 12.22237,20.9269 7.85075,4.88672 -1.61534,-14.69555 7.34661,-5.33305 12.91693,-2.39386 -0.75319,-21.11285 18.90709,2.68678 5.25242,9.68413 -1.29585,-1.76248 0.83092,-21.71704 -3.7417,-8.0242 3.63826,6.25273 -8.82794,17.23023 -4.45035,4.58027 -7.49961,-15.60241 -5.5262,14.37517 -12.70955,10.10784 z m 14.8173,-14.489 c -1.5871,0.0784 -0.16489,1.75002 0,0 z m 10.0445,-1.386 c -1.61686,-1.83015 -0.32288,3.41655 0,0 z m -18.4067,-5.05354 c -1.19125,-1.3736 -1.1912,1.37362 0,0 z m 58.5454,20.09698 c -15.47799,-1.72713 -6.50385,-12.97162 1.32865,-2.96315 1.48243,0.71783 0.71809,5.28037 -1.32865,2.96315 z m -75.8094,-1.24386 c -2.76401,-15.46728 -5.79269,-2.71473 -12.02052,-2.89496 -12.5118,-10.74647 10.784,0.81954 6.04112,-13.02123 4.47233,-2.30511 13.22801,21.27664 5.9794,15.91619 z m -26.7023,0.47593 c -1.95543,-11.44413 15.80921,-6.6571 6.86972,-1.66389 -3.31734,-0.75164 -4.87992,0.75353 -6.86972,1.66389 z m -44.7159,-1.80456 c -2.96,-7.8351 1.79707,-17.33241 -5.05789,-21.94122 7.54525,-4.68478 24.49757,15.91805 18.03979,19.79329 -6.00255,-10.04699 -5.38041,-1.11538 -10.59615,2.58534 z m -14.27,-1.11683 c -4.30354,-7.96485 -2.47731,-26.47321 3.19886,-10.20874 -0.31031,3.06986 1.94392,12.58377 -3.19886,10.20874 z m 141.491,0.0424 c 0.78139,-6.63346 -18.8708,-16.47253 -4.0619,-10.64041 0.60783,7.86472 18.65884,11.08535 4.0619,10.64041 z m -186.054,-1.89932 c -0.37711,-11.57005 22.54091,3.27597 4.8334,-1.11876 -1.8976,-1.2165 -3.47802,3.01635 -4.8334,1.11876 z m -31.8226,-2.61807 c -2.25913,-14.26924 -4.84351,-4.91923 -9.52017,-2.92549 -0.85871,-6.86725 -14.7607,-21.12336 -3.68289,-20.97831 3.21675,10.29008 4.78502,19.07404 12.73346,9.13913 0.99631,8.57396 8.236,14.64631 5.20149,1.89625 -10.98261,-12.04332 -14.15393,-26.55551 -15.88039,-42.11072 -0.14128,-15.81508 5.02115,-31.40882 17.18679,-41.96221 15.71557,-2.53355 -7.00419,-27.68004 8.61314,-21.15347 3.10673,10.40094 8.41087,2.5754 4.87708,12.08625 14.38819,-0.74045 1.59266,-4.54061 3.30819,-7.43092 11.76188,2.17728 24.04996,-2.89961 37.54783,-0.33959 9.43145,-2.72427 12.47797,7.05135 12.70492,9.00442 9.27404,10.99854 15.35043,1.36753 10.18325,-9.61444 -21.99047,-0.83209 -44.02508,-4.7622 -66.0872,-2.62161 1.51566,-13.12557 27.39431,-3.51792 38.5705,-5.54359 12.35577,1.30953 33.5962,-1.98712 30.23948,12.70108 8.67812,-2.82928 -2.90674,-22.19397 -6.58953,-24.54988 -18.14884,4.59588 -26.17009,-25.44084 -3.24538,-20.9355 7.13429,-0.65381 13.21122,4.7739 20.74913,1.73277 14.83544,-4.35522 22.86499,14.56528 4.0019,16.39136 -17.11201,-1.92627 -9.65888,16.11166 -0.96886,20.17732 -9.027,14.17472 14.65563,28.99155 7.01766,42.89068 -6.39223,1.99509 7.06258,10.47706 -0.5808,8.1825 -1.99645,0.96289 -7.29905,-11.28689 -8.52191,-16.31595 -1.26958,-8.24625 -8.1406,-10.88728 -7.58329,-17.48694 -12.73801,7.9854 11.87176,12.67806 7.0358,25.3056 -0.4725,14.91345 10.64487,14.65303 22.3692,15.88819 6.53851,-9.61399 -16.80234,-8.672 -2.9298,-15.0761 5.59915,-0.51666 31.63911,-3.85237 15.72553,3.75032 -17.09872,-0.39703 -3.57994,23.03978 7.65677,23.41953 2.53171,10.36835 3.03853,18.87896 14.15552,14.52682 9.25073,-5.21727 27.58664,-1.0185 39.96606,-2.99542 18.61446,3.37529 4.11516,-25.60532 7.73462,-36.74802 -1.07112,-13.34359 -7.19409,-24.62827 -7.74562,-38.52026 -1.89655,-12.24273 1.76764,-37.61191 -17.31318,-25.14548 -9.31643,0.34883 -9.55498,7.05268 -14.4139,5.44939 -8.38061,-2.52857 -23.02548,-10.37544 -8.5147,-18.49695 10.71851,7.08706 26.9453,10.77542 37.1789,5.03367 2.59022,-4.73367 4.3403,-6.96059 3.5488,-12.14744 7.08804,-1.74008 -1.60603,23.18293 4.12732,30.89077 2.11891,12.30681 -0.92411,29.56473 15.17704,20.14128 20.39937,-3.84395 41.27434,1.48808 61.87026,-0.71495 17.93944,-0.19902 36.18884,-3.04083 54.27471,-0.90943 7.1763,1.94484 32.2541,-2.47961 28.5487,6.7673 -15.9135,1.54692 -32.8293,-2.68093 -49.20526,-2.17324 -20.65957,0.80298 -41.1954,3.15444 -61.93306,1.78619 -12.65611,0.45295 -35.54125,-4.32977 -42.70906,3.2459 2.77884,22.84877 7.94236,34.76798 7.32925,45.51637 -0.45874,8.04211 -2.93372,20.96836 -2.86271,26.3845 -17.58519,-0.72637 -35.4237,1.16318 -52.81129,0.56606 -9.39599,-6.29831 -30.2119,0.30059 -20.2741,14.56206 15.05795,10.68262 -26.79438,12.23597 -22.35394,2.94575 17.45997,2.20109 7.6773,-21.44229 -6.13056,-15.06257 -13.53846,-1.31281 -25.68966,-7.28396 -33.6349,7.47377 -12.96941,1.62196 -24.47139,10.64523 -37.8368,6.80154 -8.77517,0.65608 -27.7814,-4.46229 -25.95921,4.43413 -6.34972,-2.578 -5.76994,5.36649 -10.34479,2.86758 z m 0.6177,-2.80458 c -1.02057,-4.26187 -0.64863,1.64095 0,0 z m 37.5003,-11.42841 c 11.69257,-2.15571 31.89415,-10.52823 36.03934,-14.24453 -12.10466,-9.25151 -28.19154,-5.09592 -38.50424,-13.88258 -3.45911,-7.90496 -9.54548,-25.62495 2.9871,-24.50313 -13.3408,2.9059 -11.8295,-15.30874 -20.051,-22.85975 -13.21011,4.78344 -22.96735,26.51777 -17.21459,42.27788 1.36443,16.8338 14.2581,35.30032 32.75177,33.86263 l 3.99492,-0.65062 z m 69.4262,-9.22673 c -11.37927,-8.82061 -2.38317,-25.47952 0.66428,-29.98788 -18.83511,-9.51558 -13.43403,19.64326 -20.61348,27.01343 6.05606,-8.72013 15.0022,4.82186 19.9492,2.97445 z m 13.9539,-1.10707 c -4.71248,-9.24138 2.97874,-22.38065 6.4128,-5.8159 7.83142,12.5931 14.6738,-16.93007 3.7157,-8.16444 -6.64887,-17.08554 -35.87254,-5.25382 -19.79615,10.09295 2.16737,2.86009 6.2011,4.58605 9.66765,3.88739 z m -42.4861,-7.07761 c 6.46129,-7.89643 15.20952,-31.88735 -4.20229,-28.37071 -10.69766,-1.06751 -19.24801,-2.93336 -16.17021,10.53801 -7.94349,14.33495 14.78059,9.98766 13.9181,18.16805 8.81947,-5.91362 1.93175,1.72054 6.4544,-0.33535 z m 6.482,-33.74185 c 0.50148,-44.46697 -16.01487,-9.95686 -17.4675,-4.15117 0.84669,5.30741 13.74402,1.82335 17.4675,4.15117 z m -34.369,-1.72155 c 6.81718,1.85786 12.31353,-4.44553 14.77103,-8.16058 3.26227,-4.93165 4.28971,-9.92216 7.05877,-12.71769 13.40895,-13.53715 -23.16007,-15.68362 -33.67939,-13.20688 -12.6687,-0.72667 -16.86464,10.28454 -9.09491,13.89218 0.004,-3.68083 7.34799,17.03857 9.7642,19.70782 3.2817,0.48507 8.61726,1.65529 11.1803,0.48515 z m 14.0421,-39.34295 c -4.56394,-5.12692 -38.01352,0.65422 -12.68776,-0.4484 4.24466,-0.18841 8.47636,0.74938 12.68776,0.4484 z m 27.5881,-33.32378 c 8.41476,-1.57153 10.49713,-0.64172 14.61567,-7.98549 -12.54832,0.11816 -28.21113,-2.70639 -40.33756,0.0833 3.427,11.35475 18.34006,6.12847 25.72189,7.90214 z m 16.8003,-1.60123 c -1.37707,-1.28873 -1.37702,1.28875 0,0 z m -49.2125,141.49173 c -7.32074,-18.7345 21.93133,2.09525 3.4482,-1.17425 l -1.29004,1.36925 -2.15816,-0.19489 z m -109.5277,-1.14727 c -4.94724,-4.33237 -8.75693,-2.08923 -5.0512,-11.3637 4.15992,-5.44011 6.18946,10.78631 5.0512,11.3637 z m 30.135,0.10372 c -4.34124,-7.13819 -19.32865,-15.51699 -10.57735,-21.37159 2.96237,4.96942 13.8505,18.05093 10.57735,21.37159 z m -12.9469,-1.70642 c -16.13987,2.26129 -9.94947,-31.16696 -2.3816,-7.84635 1.15046,1.75186 10.14232,8.61212 2.3816,7.84635 z m 322.1504,-7.21195 c -5.87352,-2.71285 -18.47657,-5.86191 -6.45367,-12.83191 10.69564,-3.79334 26.39063,16.34898 6.45367,12.83191 z m -31.4615,-7.49033 c 0.72787,-6.33997 25.09865,-5.85112 7.766,-1.03516 -2.6303,-0.68169 -5.20536,2.65286 -7.766,1.03516 z m -34.2341,-1.09598 c -3.60863,-1.8804 -19.39394,-7.54932 -8.9566,-9.04621 8.51985,-0.0128 32.91126,8.83465 8.9566,9.04621 z m 124.36923,-1.44935 c 1.564,-10.86786 7.9012,-21.11681 9.0385,-33.90106 0.6999,-9.6844 10.6519,-19.97705 5.3372,-27.78485 8.7857,-2.25972 -5.2406,-18.93651 7.4002,-9.86311 -1.1195,15.08514 -10.5707,28.3653 -12.4546,43.71736 -5.1481,8.89438 0.5522,29.47707 -9.3206,27.83166 z m -187.21443,-1.51282 c 0.86439,-1.78246 1.49373,1.20042 0,0 z m 187.48403,-2.771 c 0.4911,-2.60894 1.2115,0.8092 0,0 z M -70.84631,607.66442 c -0.44152,-1.54401 1.22497,1.6493 0,0 z m -18.5436,-44.5534 c 1.35623,-1.26479 0.90432,1.30666 0,0 z m 1.0862,-1.6168 c 0.50941,-0.93961 0.157,1.52106 0,0 z m 111.0294,-46.282 c -4.14391,0.4271 -8.71671,-13.83684 -18.37415,-7.70713 -10.7,-2.4393 -22.47601,-20.90496 -4.22943,-18.02756 8.88296,3.05926 24.77455,18.16276 22.60358,25.73469 z"
         sodipodi:nodetypes="ccccssccccccccccccccccccccccccccccccccccccccccccccccccccccccccccccccccccccccccccccccccccccccccccccccccccccccccccccccccccccccccccsccccccccccccccccccccccccccccccccccccccsscccccccsccssccscccscccccccccccccccccccccccsccccccccccccccc" />
      <path
         style="fill:#f04124;fill-opacity:1;stroke:none;stroke-width:0.499999;stroke-linecap:round;stroke-linejoin:round"
         d="m -88.332579,536.54356 7.015827,-0.93543 11.024867,-2.00451 4.209494,-5.41221 -0.46772,-4.07588 -10.757598,-0.73499 -30.067821,-0.60134 -3.67496,4.07585 3.87541,6.94901 10.690781,2.47225 z"
         id="path2055" />
    </g>
  </g>
  <g
     inkscape:groupmode="layer"
     id="layer5"
     inkscape:label="WindMill"
     style="display:none">
    <g
       id="g5545"
       transform="matrix(11.083248,0,0,11.083248,-1137.2071,-553.30675)"
       style="display:inline">
      <path
         style="fill:#cccccc;fill-opacity:1;stroke-width:0.0659783;stroke-linecap:round;stroke-linejoin:round"
         d="m 114.01641,56.146844 c 0.28284,-0.440851 0.2475,-0.881701 0.15871,-1.322552 4.03498,0.100612 7.63621,1.023088 11.39159,3.491539 -3.00124,0.158511 -6.09908,0.31454 -11.5503,-2.168987 z"
         id="path5488"
         sodipodi:nodetypes="cccc" />
      <path
         style="fill:#cccccc;fill-opacity:1;stroke-width:0.0659783;stroke-linecap:round;stroke-linejoin:round"
         d="m 112.1472,52.919814 c -0.61273,-0.135577 -1.16196,-0.05685 -1.58706,0.440855 -3.05195,-6.630683 -2.52655,-9.996374 -2.06646,-11.248044 0.91142,0.94716 2.92053,3.958708 3.65352,10.807189 z"
         id="path5490"
         sodipodi:nodetypes="cccc" />
      <path
         style="fill:#cccccc;fill-opacity:1;stroke-width:0.0659783;stroke-linecap:round;stroke-linejoin:round"
         d="m 109.87241,56.852208 c -0.44917,-0.26472 -0.60183,-0.696292 -0.61115,-1.146214 -3.72418,2.128056 -5.83496,2.403484 -8.83325,7.053615 2.16529,0.8384 5.2566,-1.93171 9.4444,-5.907401 z"
         id="path5492"
         sodipodi:nodetypes="cccc" />
      <ellipse
         style="fill:#c7c5c6;fill-opacity:1;stroke-width:0.499999;stroke-linecap:round;stroke-linejoin:round;filter:url(#splotch)"
         id="ellipse5500"
         cx="1364.8118"
         cy="664.83295"
         rx="8.8198938"
         ry="8.2853556"
         transform="matrix(0.13195697,0,0,0.13195697,-68.249009,-32.5171)" />
      <path
         id="path3329"
         style="display:inline;fill:#333333;fill-opacity:1;stroke-width:0.352777"
         d="m 508.61691,-639.46422 c -4.122,8.33199 -9.181,18.80417 -6.5665,30.63634 -0.202,20.64578 0.6609,41.77377 6.4467,61.49599 3.9665,8.30379 7.9099,21.64654 13.5791,31.10434 5.5078,7.51184 5.1474,21.52608 14.1938,24.96828 1.9588,-7.76499 -10.1531,-21.38767 -12.0499,-32.35203 -6.3978,-10.32251 -9.1897,-22.0757 -13.2436,-33.88733 -3.8365,-22.85196 -4.6437,-46.55953 -2.3032,-69.56785 7.1083,-0.26715 10.6331,18.02135 15.7158,23.21761 8.2096,14.6803 12.073,30.74342 16.7144,46.64546 2.9514,19.7929 8.8326,39.35677 8.6483,59.59567 13.2792,6.01197 1.7053,-23.95426 2.4888,-30.91807 -3.4246,-18.66495 -7.0691,-37.12609 -13.459,-54.91384 -6.2497,-15.12991 -13.1321,-30.04564 -21.7885,-43.94782 -4.8328,-2.73593 -3.7895,-10.14603 -8.3762,-12.07675 z m 117.0445,44.05831 c -9.8085,6.39305 9.5455,6.46586 12.7449,10.86601 5.4824,1.66738 10.2165,7.24236 13.8614,11.47416 8.0915,4.49961 12.2907,23.06241 20.7578,21.29526 -4.2464,-14.24578 -16.2545,-26.78629 -28.301,-35.31921 -5.0635,-4.43388 -12.6881,-6.25072 -19.0631,-8.31622 z m -11.391,30.26428 c -6.3121,8.97015 22.9377,5.63769 22.4513,19.99105 3.4711,11.04868 16.432,11.40642 5.1647,-1.93839 -5.0967,-11.53084 -15.6538,-15.10816 -27.616,-18.05266 z m -177.8098,10.71769 c -7.1498,16.49794 -12.6723,34.64867 -7.5685,52.75802 2.6626,12.04865 10.0449,11.15285 3.7868,-1.32548 -5.5963,-17.30801 4.2045,-35.45303 6.4895,-50.47652 l -2.1823,-0.86455 z m 184.4998,12.62819 c -9.6486,0.3786 10.7541,18.05327 8.634,7.58056 -1.4182,-3.72513 -4.748,-6.65748 -8.634,-7.58056 z m -152.2816,5.79705 c -10.4024,8.95882 -22.4235,34.10987 -7.452,43.04837 -10.1759,-14.71382 7.2126,-32.65945 8.3915,-42.98016 z m 15.6817,23.63785 c -10.3135,4.98404 -0.6785,31.32937 0.3339,10.67382 -1.8365,-2.99731 1.8168,-9.06764 -0.3339,-10.67382 z m 70.2381,26.01907 c -18.0166,-5.15837 -32.1524,20.89367 -13.0416,28.62771 11.877,9.2393 37.9108,-7.87025 25.1707,-21.06573 -2.95,-3.71835 -7.0893,-7.41836 -12.1291,-7.56198 z m -4.2654,5.53093 c 26.4471,0.16738 5.5345,31.68851 -9.3438,15.47731 -8.3103,-7.47096 0.1791,-16.43084 9.3438,-15.47731 z m 25.6264,1.67071 c -6.1974,12.98202 23.215,2.213 31.2567,6.64893 19.4126,1.36107 38.4302,6.37199 55.9405,14.71565 15.3995,6.63501 31.1398,13.52558 45.6737,21.78851 -15.6248,4.34819 -33.0867,-2.00842 -49.347,-2.87083 -24.8818,-2.8316 -49.399,-8.96131 -72.4277,-18.74507 -11.8953,-10.37489 -23.362,-2.42517 -5.541,3.0153 17.7957,9.89235 37.8071,13.4225 56.9611,18.82838 26.4148,4.02649 52.7816,7.71841 79.5639,7.49045 17.4322,-4.07118 -14.4726,-17.27429 -21.6385,-21.31961 -26.6607,-12.26987 -53.6662,-25.74306 -83.3923,-28.11457 -12.1987,-1.55803 -24.7427,-1.09053 -37.0494,-1.43714 z m -54.4293,10.6226 c -22.009,6.33931 -42.8806,17.48181 -61.3968,31.11955 -19.1829,16.69568 -40.6446,32.6347 -52.2014,55.93767 -8.5739,15.15334 21.8851,3.89557 30.2312,1.94044 15.783,-5.34173 29.4185,-16.2945 43.4268,-23.40322 14.6879,-17.1827 32.6132,-31.47422 47.8762,-48.10043 -9.4229,-10.40172 -19.9069,18.93062 -30.7382,22.66684 -14.9182,15.35221 -31.6533,28.68801 -49.9628,39.75778 -10.4027,2.92675 -47.2992,19.48459 -28.1203,-2.45359 10.9589,-15.25763 26.6057,-26.60754 39.6875,-39.37073 17.9355,-13.63527 37.7147,-25.09581 59.2868,-32.12774 2.8703,1.20057 5.7657,-6.72645 1.911,-5.96657 z m 67.0373,68.23718 c -9.3228,2.95865 -20.1518,23.07155 -4.3191,10.63449 1.169,-2.64282 9.8976,-8.23512 4.3191,-10.63449 z m 15.7132,8.41292 c -9.5502,10.87393 -21.5316,24.10237 -33.1731,29.28038 12.8364,7.88784 26.2708,-15.305 33.1607,-24.51065 0.6079,-0.95956 1.477,-4.17849 0.012,-4.76973 z m 38.145,14.19913 c -13.3917,15.6369 -29.1786,29.72835 -48.5645,37.59719 -10.9619,0.99421 -19.2924,15.63025 -3.5274,7.46466 20.6313,-8.65149 42.4418,-21.21693 52.4469,-41.9747 -0.013,-0.33538 0.7459,-3.01235 -0.355,-3.08715 z"
         inkscape:export-filename="C:\Users\Lukas\Documents\ProjektOhneNamen\presentation\bg_RapidAppDev.png"
         inkscape:export-xdpi="300"
         inkscape:export-ydpi="300"
         sodipodi:nodetypes="ccccccccccccccccccccccccccccccccccccccccccccccccccccccccccccccccccccccccccccccccccccc"
         transform="matrix(0.0820122,0,0,0.0820122,66.751694,93.870377)" />
    </g>
    <g
       id="g5552"
       transform="matrix(11.083248,0,0,11.083248,-1137.2071,-553.30675)"
       style="display:inline">
      <path
         style="fill:#358753;fill-opacity:1;stroke-width:0.0659783;stroke-linecap:round;stroke-linejoin:round"
         d="m 109.73133,79.035826 c 1.62096,0.423919 3.18715,0.169352 4.39088,-0.211608 l -0.37863,-2.021925 -3.58902,0.223253 z"
         id="path5494"
         sodipodi:nodetypes="ccccc" />
      <path
         style="fill:#43ac6a;fill-opacity:1;stroke-width:0.0659783;stroke-linecap:round;stroke-linejoin:round"
         d="m 110.15456,77.025546 3.73842,-0.229243 -0.47612,-1.870879 -2.96252,0.407255 z"
         id="path5496"
         sodipodi:nodetypes="ccccc" />
      <path
         style="fill:#42ac6a;fill-opacity:0.65098;stroke-width:0.0659783;stroke-linecap:round;stroke-linejoin:round"
         d="m 110.70701,73.141788 2.60575,0.06316 0.0455,1.766717 -2.76289,0.42273 z"
         id="path5498"
         sodipodi:nodetypes="ccccc" />
      <path
         style="fill:#cccccc;fill-opacity:1;stroke:none;stroke-width:0.499999;stroke-linecap:round;stroke-linejoin:round;stroke-opacity:0.8"
         d="m 110.70701,73.141787 2.61686,-0.176681 -0.72511,-11.40369 c -0.0885,-1.4531 -0.32176,-2.888102 0.0636,-4.400439 l -1.51191,0.543341 0.18899,2.102492 -0.14174,3.401785 -0.4016,4.134115 -0.11812,2.385975 z"
         id="path5531"
         sodipodi:nodetypes="cccccccccc" />
      <path
         id="path5504"
         style="display:inline;fill:#333333;fill-opacity:1;stroke-width:0.352777"
         d="m 557.22071,-451.64001 c -6.6492,17.61726 -1.272,38.75549 -1.0739,57.68691 4.0978,42.64949 6.3262,85.48559 7.6233,128.31731 1.7967,12.52447 -30.0591,7.52118 -25.8743,7.94032 -1.721,-10.32867 4.9079,-18.57865 9.2645,-27.27927 -5.5686,1.92123 -9.2259,16.18114 -8.2004,0.85418 -2.5927,-9.59952 3.7265,-26.64279 3.5716,-23.47779 -8.0182,0.69338 -1.4911,-27.52711 2.5865,-34.21013 -9.1021,-2.10607 6.5359,-23.05172 -3.2364,-17.03857 1.9159,-7.84528 6.0869,-12.82937 0.7302,-12.51779 0.8946,-5.70566 13.2945,-22.02192 1.9007,-12.96581 1.3785,-4.66168 15.8666,-28.99499 3.0793,-13.17986 -10.0372,10.86836 13.6,-28.72808 -1.8534,-8.79328 1.4456,-9.81824 -4.8056,-19.58494 2.4678,-22.54176 -5.5034,-5.71904 3.4133,-8.35831 -4.7181,-7.47085 7.7773,-10.70195 -10.9374,-10.32793 -8.0006,0.337 7.8718,3.7565 2.6519,32.24421 5.3404,44.46594 -5.8071,23.2323 -5.2015,47.53429 -7.4754,71.31279 -0.6679,38.76024 -0.054,77.65462 -7.7532,115.79207 -3.4247,6.27835 -3.5879,32.13461 1.4113,23.97838 5.2017,-7.67412 1.261,-27.98422 17.5602,-23.37207 8.5492,2.19193 35.3769,-4.0611 15.0053,-6.09899 -11.1514,-0.43539 -34.7822,8.90056 -24.5939,-11.37295 2.7802,-8.20698 33.2091,0.91304 27.9136,-11.53521 -10.5261,3.58113 -35.7699,10.45576 -25.1994,-9.72967 -4.2591,-13.31177 29.3115,-3.00245 27.2677,-7.31782 1.7,16.34487 3.3031,30.60637 5.2616,46.54237 1.0422,9.10138 6.6227,35.24139 11.2293,19.07824 -5.159,-19.82416 -7.0907,-40.67532 -9.3148,-61.21813 -3.9208,-41.84221 -3.3607,-84.09672 -7.738,-125.95067 -1.9661,-26.177 -6.0171,-52.73287 -3.4594,-78.86083 l -1.7015,-0.82629 z m 32.3577,263.55393 c -9.9118,4.11616 -3.6565,21.18736 -0.6522,5.02088 -1.4974,-1.33623 3.5199,-4.23143 0.6522,-5.02088 z m 4.8519,5.46064 c -6.9332,5.67909 7.1872,5.86491 0,0 z"
         transform="matrix(0.0820122,0,0,0.0820122,66.751694,93.870377)"
         inkscape:export-filename="C:\Users\Lukas\Documents\ProjektOhneNamen\presentation\bg_RapidAppDev.png"
         inkscape:export-xdpi="300"
         inkscape:export-ydpi="300"
         sodipodi:nodetypes="cccccccccccccccccccccccccccccccccccccc" />
    </g>
  </g>
  <g
     inkscape:groupmode="layer"
     id="layer4"
     inkscape:label="HeatPumpAir"
     style="display:inline">
    <g
       id="g2196">
      <path
         style="fill:#f8f9fa;fill-opacity:1;stroke:none;stroke-width:0.499999;stroke-linecap:round;stroke-linejoin:round"
         d="m -190.10696,474.93361 -1.10994,28.33242 -52.06704,-31.45687 -5.65889,-2.42419 9.71828,-11.60078 60.52103,-40.87616 42.61702,1.78726 6.42832,9.21212 -19.99234,15.20024 z"
         id="path4324"
         sodipodi:nodetypes="cccccccccc" />
      <path
         style="fill:#eeeeee;fill-opacity:1;stroke:none;stroke-width:0.499999;stroke-linecap:round;stroke-linejoin:round"
         d="m -249.29478,470.26661 48.1961,-0.6006 2.36239,9.52633 -1.86111,60.54496 0.0504,23.74128 -8.32797,5.25206 -23.92357,-2.54997 -18.28917,-11.22731 z"
         id="path4326" />
      <path
         style="fill:#dee2e6;fill-opacity:1;stroke:none;stroke-width:0.499999;stroke-linecap:round;stroke-linejoin:round"
         d="m -199.30325,476.73549 9.00729,-5.01468 60.4488,-47.0262 0.20243,12.09687 -0.92721,46.92623 0.35947,38.24121 -32.38186,22.37151 -33.17557,24.07881 -5.34408,-7.38751 c 0,0 1.00438,-70.80694 0.98364,-71.2742 -0.0206,-0.46726 0.82709,-13.01204 0.82709,-13.01204 z"
         id="path4328" />
      <path
         style="fill:#adb5bd;fill-opacity:1;stroke:none;stroke-width:0.499999;stroke-linecap:round;stroke-linejoin:round"
         d="m -187.16315,503.35862 2.2733,-12.07298 c 0,0 7.80322,-11.0476 8.24087,-11.73585 0.43762,-0.68826 17.9641,-8.15439 17.9641,-8.15439 l 11.32387,1.97213 13.84525,7.5453 c 0,0 3.37256,9.68216 3.45115,9.9462 0.0786,0.26405 -2.65801,19.98226 -2.7767,20.32194 -0.11869,0.33968 -13.12736,16.16636 -13.12736,16.16636 l -15.1548,11.17321 -12.4869,-1.05103 c 0,0 -12.14525,-8.42335 -12.4419,-9.07901 -0.29663,-0.65567 -3.38696,-16.03542 -3.38696,-16.03542 z"
         id="path4330" />
      <path
         id="path4264"
         style="fill:#333333;fill-opacity:1;stroke-width:0.352778"
         d="m -248.12685,560.40152 c -2.9948,-1.30798 -6.1319,-3.98613 -5.1891,-7.57779 -0.2279,-13.23076 0.8381,-26.45609 0.1706,-39.67178 1.1696,-6.56339 1.2201,-13.25859 1.141,-19.96833 0.1817,-8.72521 -0.9865,-17.6089 0.4046,-26.2098 0.6164,-7.17779 9.4969,-7.72171 14.1449,-12.03646 5.043,-4.16014 10.8328,-6.55467 15.4761,-11.23231 7.8788,-6.31929 15.8052,-12.58618 24.1901,-18.21076 5.8268,-3.668 11.6346,-7.39594 17.1065,-11.54823 7.1182,-2.2921 14.8978,1.07235 22.3378,0.39366 7.5598,0.82861 15.3935,-0.1089 22.8015,1.51141 6.7876,1.39955 -0.6441,7.08422 -4.7819,4.76577 -11.12,0.10128 -22.1333,-1.96164 -33.2782,-1.42687 -5.5583,-1.06508 -8.5597,2.51942 -13.1764,5.52656 -9.2035,5.06218 -17.1646,11.96392 -25.9049,17.75123 -6.8081,5.12462 -13.0138,11.12862 -20.535,15.24039 -2.8511,2.80901 -15.9251,8.09987 -6.4356,10.3385 6.6179,1.08273 13.7113,1.06484 20.3183,0.22443 6.883,-0.0951 13.7427,-0.5834 20.4739,-1.73047 4.4616,6.07155 -8.7326,7.43651 -13.3245,6.88593 -9.7362,1.25422 -19.6751,1.59453 -29.4765,1.05513 -7.7858,-3.90052 -2.91,10.50368 -4.3871,14.97081 -0.5582,21.79666 -0.5561,43.60943 -0.8553,65.41385 4.1759,3.79898 10.3455,4.51438 15.605,6.30558 6.8957,2.82195 14.2097,7.53888 20.8509,4.49309 7.7778,-3.56704 6.0682,6.91836 -1.0198,6.6089 -6.3005,-0.27508 -11.8526,-1.64446 -17.877,-3.16253 -6.5555,-2.29588 -12.6311,-5.41061 -18.7799,-8.70991 z m 100.6791,-20.54138 c -10.3014,6.88277 -19.6842,15.02209 -29.7587,22.22383 -6.4754,3.30837 -12.1598,7.97713 -18.7447,11.09095 -3.5174,-3.84612 1.1429,-6.9591 3.0011,-8.20776 6.6727,-4.0521 13.1312,-8.46014 19.4996,-13.00446 3.4144,-3.27019 10.8195,-7.13376 11.7343,-10.53471 -6.9001,-0.59211 -14.882,0.8216 -20.0906,-4.94117 -5.6161,-3.73166 -8.0645,-10.0389 -9.299,-16.28739 -1.0687,-7.08603 -1.7664,-14.71668 1.3431,-21.42256 0.5599,-6.08507 3.3098,-11.53407 7.6085,-15.94089 2.9744,-6.33391 9.0742,-8.72824 14.9146,-11.71549 6.8629,-2.56573 15.2356,-3.75157 21.9216,0.0178 4.4683,0.80842 12.839,11.0255 11.2087,0.8289 -0.011,-8.68372 -1.2057,-17.42142 0.5158,-25.99968 -0.2032,-4.51202 4.9346,-17.83352 -3.4918,-10.12637 -6.6777,4.49425 -12.821,9.7099 -19.2225,14.564 -3.9554,5.27123 -11.5443,7.51155 -15.8625,12.87904 -5.0646,3.70332 -9.7965,8.35346 -14.6859,11.89189 -3.0885,5.47091 -9.2652,-0.52849 -4.0248,-3.9032 5.6102,-4.703 12.0729,-8.47708 16.9242,-14.13902 5.4091,-4.4324 11.1491,-8.28808 16.3633,-12.99653 7.7624,-6.22851 15.6496,-12.29815 24.5193,-16.87534 2.3464,-5.84449 9.7822,-1.54904 5.5529,3.27899 2.4194,9.91706 -1.3161,19.93989 -0.5186,29.97061 -0.056,12.88986 0.842,25.75789 0.9626,38.64145 0.3834,8.57406 0.1852,17.16414 0.2466,25.74572 -6.3807,5.62971 -13.4854,10.39517 -20.6171,14.96135 z m -19.3551,-4.57117 c 2.8632,-1.17923 12.3421,-1.19482 6.9636,-5.80422 0.8864,-4.5265 0.5429,-9.10743 -1.3529,-13.28175 -2.7725,4.84367 -2.6212,12.88074 -6.3574,18.26883 -0.8739,0.60298 0.6333,2.08174 0.7467,0.81714 z m -5.9164,-2.31888 c 0.6119,-5.01149 6.4705,-13.56611 3.9312,-17.06861 -3.4724,4.78478 -11.9967,7.85488 -12.3383,13.5289 2.1623,0.35297 8.4985,9.19926 8.4071,3.53971 z m 32.0113,-4.59804 c 4.2109,-1.80002 9.6115,-10.96866 5.7548,-12.87371 -1.8605,5.9579 -6.7177,10.60466 -9.6593,15.67459 1.6349,-0.028 2.5719,-2.02 3.9045,-2.80088 z m -10.1667,-0.71501 c 5.3208,-5.96025 9.3494,-12.74129 13.4197,-19.57949 1.7528,-2.72167 4.1528,-5.69929 3.8004,-9.14827 -0.4783,-4.40071 1.3724,-10.0025 -1.6227,-13.37324 -2.1655,-3.20847 -3.431,-4.13538 -6.9857,-4.31415 -6.8706,-0.34554 -9.5774,7.42254 -13.9287,10.98471 -5.0683,4.13558 6.598,1.8445 9.8311,1.7701 3.3513,-0.0771 10.5868,-7.14716 8.5129,-0.10049 -3.4715,7.31387 -12.1497,4.32748 -17.9689,6.14633 3.0377,4.99042 13.0825,9.35514 9.0135,16.52476 -4.1398,-2.13368 -6.4751,-8.59084 -11.3879,-11.1258 -5.7967,-5.25658 1.0464,5.40943 0.9625,8.28292 2.841,4.88696 1.9248,12.10842 3.7796,16.29064 1.0151,-0.59434 1.7391,-1.55932 2.5742,-2.35802 z m -28.0703,-9.67959 c 3.2607,-2.59206 4.5643,-4.97528 -0.6393,-5.02399 -3.8623,-0.44476 -8.7149,-3.83897 -6.5116,2.73919 -0.2364,6.09215 3.6764,7.53466 7.1509,2.2848 z m 6.4976,-10.02114 c 3.2697,-0.39442 7.5341,-2.78052 8.2702,-0.0812 -2.136,-2.85629 -0.1342,-10.14244 -6.3511,-7.6277 -4.7382,-0.66943 -7.3255,-13.74463 -0.9967,-9.7394 0.4812,3.91755 4.8367,9.50013 4.2299,2.06252 1.213,-6.14826 2.8253,-12.89657 6.1366,-17.91526 -5.0372,0.63233 -11.2018,6.40221 -14.6358,7.74255 -2.68,-0.009 3.4106,6.45052 -2.9557,5.02457 -3.9956,4.50413 -0.7367,12.11223 4.575,13.17439 3.8038,-0.94752 10.6418,5.11546 3.315,4.68189 -5.1533,0.24202 -9.4539,-3.5126 -12.0184,-6.39215 -3.4691,3.82024 0.024,10.1013 5.7567,9.53075 1.5704,0.0752 3.1467,-0.13858 4.6743,-0.46096 z m 15.2176,-22.79953 c 3.1075,-1.87949 4.082,-4.16079 7.3216,-5.46319 7.8699,-3.16398 -5.8395,-7.20616 -7.1647,-3.94981 0.8834,1.61583 -5.0016,13.7464 -0.1569,9.413 z m -44.7736,79.81596 c -2.2103,-6.61025 1.5879,-11.88306 -0.3716,-18.74368 -0.3978,-7.23975 -1.4749,-14.2822 -1.6189,-21.58686 -0.2226,-7.92672 -0.1863,-15.96852 1.7266,-23.66123 -0.8045,-6.57428 0.4872,-13.8371 -1.7333,-20.0112 -2.2937,-5.47544 6.1449,-10.15795 7.1739,-3.7583 0.7567,23.01345 -1.8807,45.99267 -1.3668,69.0122 -0.839,5.77949 2.0902,13.38366 -0.7594,18.038 -0.8638,0.48953 -2.2859,2.53136 -3.0505,0.71107 z"
         sodipodi:nodetypes="ccccccccccccccccccccccccssccscccccccccccccccccccccccccsscccccccccccccccccscscccccccccccscccccccccccsscsccccccccccc" />
    </g>
  </g>
  <g
     inkscape:groupmode="layer"
     id="layer3"
     inkscape:label="Photovoltaic"
     style="display:inline">
    <g
       id="g2125"
       transform="matrix(1.0872239,0,0.1917069,1.0872239,6.5330297,12.029702)">
      <path
         style="fill:#006687;fill-opacity:1;stroke-width:0.499999;stroke-linecap:round;stroke-linejoin:round"
         d="m -316.26287,236.0051 19.1764,-9.27407 41.6836,-27.94668 -2.4652,-6.71753 -34.3142,-38.57617 -32.472,-42.16076 -17.0047,-13.540016 -34.5646,18.971526 -27.2927,14.7901 -3.2734,6.27727 25.872,32.10269 29.9809,31.01892 28.6452,30.98008 z"
         id="path2119"
         sodipodi:nodetypes="cccccccccccccc" />
      <path
         style="fill:#008cba;fill-opacity:1;stroke:none;stroke-width:0.499999;stroke-linecap:round;stroke-linejoin:round"
         d="m -342.54327,212.65605 42.51761,-70.18674 20.65249,26.65702 21.5051,22.94049 -3.20942,9.29349 -34.42914,23.45256 -22.75062,15.41238 z"
         id="path2121"
         sodipodi:nodetypes="cccccccc" />
      <path
         id="path2123"
         style="fill:#333333;fill-opacity:1;stroke-width:0.352777"
         d="m -343.75989,94.306831 c -2.5454,-0.0038 -5.21869,0.91338 -8.03878,3.136243 -11.3969,8.179476 -23.82906,14.169826 -36.27996,20.970296 -8.8256,4.82036 -32.32396,9.93945 -24.40006,21.7842 4.98639,7.45377 14.90869,10.98789 19.05259,19.05413 7.9833,15.53961 22.66397,24.86784 35.61488,39.81411 12.3571,14.26091 25.82815,27.48215 38.07105,42.04084 2.632,3.12987 5.66478,-2.9822 9.93738,-4.60075 13.335,-5.05151 23.86904,-15.604 35.03144,-24.48222 6.96601,-5.54055 27.88661,-9.71679 20.67473,-19.51044 -7.253,-9.84943 -14.95295,-19.34344 -23.62906,-27.94868 -16.14681,-16.01486 -26.06432,-37.26485 -42.84184,-52.45985 -6.64686,-6.01991 -14.10171,-17.784335 -23.19237,-17.797879 z m 2.61276,6.800099 c 2.3404,5.46719 6.96545,6.48334 12.28193,9.99991 11.2716,7.45557 20.8498,20.15354 27.81951,31.67972 6.80789,11.25859 15.42823,20.63705 24.24811,30.0576 l 12.69794,16.20262 c 9.00361,12.6209 -7.09213,9.87386 -19.14972,21.35167 -11.3647,10.8183 -20.80049,22.73213 -31.24409,22.30923 -8.63151,-0.34952 -10.28486,-12.2748 -16.73696,-17.72604 -8.57732,-7.24681 -17.20157,-13.80083 -23.01566,-23.35569 -5.03301,-8.27133 -20.18792,-12.36062 -16.39022,-21.29275 3.3342,-7.84181 -5.71704,-2.78019 -6.77632,-3.73104 -9.14871,-8.21236 -20.06505,-15.49714 -25.25067,-26.71465 -5.50389,-11.90618 19.23111,-12.60502 28.4086,-20.32382 9.62231,-8.09287 21.61254,-14.14848 33.10755,-18.45676 z" />
    </g>
    <g
       id="g2133"
       transform="matrix(1.0872239,0,0.1917069,1.0872239,-102.02009,67.193387)">
      <path
         style="fill:#006687;fill-opacity:1;stroke-width:0.499999;stroke-linecap:round;stroke-linejoin:round"
         d="m -316.26287,236.0051 19.1764,-9.27407 41.6836,-27.94668 -2.4652,-6.71753 -34.3142,-38.57617 -32.472,-42.16076 -17.0047,-13.540016 -34.5646,18.971526 -27.2927,14.7901 -3.2734,6.27727 25.872,32.10269 29.9809,31.01892 28.6452,30.98008 z"
         id="path2127"
         sodipodi:nodetypes="cccccccccccccc" />
      <path
         style="fill:#008cba;fill-opacity:1;stroke:none;stroke-width:0.499999;stroke-linecap:round;stroke-linejoin:round"
         d="m -342.54327,212.65605 42.51761,-70.18674 20.65249,26.65702 21.5051,22.94049 -3.20942,9.29349 -34.42914,23.45256 -22.75062,15.41238 z"
         id="path2129"
         sodipodi:nodetypes="cccccccc" />
      <path
         id="path2131"
         style="fill:#333333;fill-opacity:1;stroke-width:0.352777"
         d="m -343.75989,94.306831 c -2.5454,-0.0038 -5.21869,0.91338 -8.03878,3.136243 -11.3969,8.179476 -23.82906,14.169826 -36.27996,20.970296 -8.8256,4.82036 -32.32396,9.93945 -24.40006,21.7842 4.98639,7.45377 14.90869,10.98789 19.05259,19.05413 7.9833,15.53961 22.66397,24.86784 35.61488,39.81411 12.3571,14.26091 25.82815,27.48215 38.07105,42.04084 2.632,3.12987 5.66478,-2.9822 9.93738,-4.60075 13.335,-5.05151 23.86904,-15.604 35.03144,-24.48222 6.96601,-5.54055 27.88661,-9.71679 20.67473,-19.51044 -7.253,-9.84943 -14.95295,-19.34344 -23.62906,-27.94868 -16.14681,-16.01486 -26.06432,-37.26485 -42.84184,-52.45985 -6.64686,-6.01991 -14.10171,-17.784335 -23.19237,-17.797879 z m 2.61276,6.800099 c 2.3404,5.46719 6.96545,6.48334 12.28193,9.99991 11.2716,7.45557 20.8498,20.15354 27.81951,31.67972 6.80789,11.25859 15.42823,20.63705 24.24811,30.0576 l 12.69794,16.20262 c 9.00361,12.6209 -7.09213,9.87386 -19.14972,21.35167 -11.3647,10.8183 -20.80049,22.73213 -31.24409,22.30923 -8.63151,-0.34952 -10.28486,-12.2748 -16.73696,-17.72604 -8.57732,-7.24681 -17.20157,-13.80083 -23.01566,-23.35569 -5.03301,-8.27133 -20.18792,-12.36062 -16.39022,-21.29275 3.3342,-7.84181 -5.71704,-2.78019 -6.77632,-3.73104 -9.14871,-8.21236 -20.06505,-15.49714 -25.25067,-26.71465 -5.50389,-11.90618 19.23111,-12.60502 28.4086,-20.32382 9.62231,-8.09287 21.61254,-14.14848 33.10755,-18.45676 z" />
    </g>
  </g>
  <g
     inkscape:groupmode="layer"
     id="layer2"
     inkscape:label="HeatStorage"
     style="display:none">
    <path
       style="fill:#006687;fill-opacity:1;stroke:none;stroke-width:0.499999;stroke-linecap:round;stroke-linejoin:round"
       d="m -752.1726,665.23808 13.04018,6.99257 23.05653,6.42559 19.2768,0.37799 24.00149,-6.80358 5.48063,-14.93007 6.80358,-41.76635 3.02381,-29.48215 -12.66219,-7.37053 -24.00149,2.8348 -15.875,-3.59077 -11.71726,2.45685 -13.22916,1.5119 -3.4018,4.72472 -6.04761,-0.75597 z"
       id="path2063" />
    <path
       id="path853"
       style="fill:#000000;stroke-width:0.352778"
       d="m -724.12115,680.70564 c -8.5236,-3.31022 -17.0361,-6.73967 -25.8461,-9.19529 -7.2879,-3.32659 -4.888,-11.99229 -4.4338,-18.21416 0.077,-7.3181 1.2439,-14.55791 2.1528,-21.77884 1.0304,-15.62381 5.6897,-30.88867 5.1654,-46.63644 0.6854,-8.18652 4.7568,-15.92645 3.7228,-24.26539 0.7399,-7.87834 8.6745,-12.13116 15.8579,-12.55315 7.1678,-0.51186 14.3696,-0.36394 21.5147,-1.21976 8.369,-0.0197 16.7479,0.92585 25.0881,-0.2488 6.4761,-0.58495 13.5705,0.75875 17.9701,5.93907 5.9848,5.10717 6.6014,13.35005 6.3321,20.65739 0.3875,19.73429 -1.0774,39.48756 -2.6966,59.11988 -2.0914,9.09043 -1.9149,18.72821 -5.6592,27.39732 -1.0776,6.07934 -1.2929,14.21714 -8.0419,16.86561 -9.3591,3.07926 -18.7973,6.82534 -28.8409,6.89077 -7.5653,0.41918 -14.8183,-2.04043 -22.2854,-2.75821 z m 30.7657,-5.24537 c 6.2456,-2.2296 14.2507,-1.57587 18.6189,-7.3955 5.354,-11.19954 7.5321,-23.59506 10.0363,-35.65464 2.0079,-13.91728 2.775,-27.98639 3.3647,-42.00317 0.3732,-7.09342 -7.4995,-9.07397 -13.0606,-9.78783 -8.1883,-0.95322 -16.0345,2.77338 -24.1537,2.42387 -6.3095,-0.73288 -13.2363,-4.65922 -19.2594,-0.83034 -5.5274,4.13916 -18.0592,-3.84335 -19.1196,4.96392 3.7201,6.24622 12.3646,5.81062 18.7482,5.7411 6.8643,1.27143 13.4769,-0.86393 20.2597,-0.9267 7.3836,-0.14418 15.1305,1.45898 22.1506,-1.50191 2.2842,-1.91266 10.2029,-0.43384 5.8096,2.44284 -6.7183,1.90161 -13.5435,4.52113 -20.6432,2.96857 -4.4229,-1.09641 -15.0068,-1.71303 -12.6803,5.07038 3.5919,6.47412 -0.4862,14.00105 -0.3432,20.91267 -2.7735,8.10068 -1.2451,16.01154 2.2227,23.48208 2.9,8.47491 -8.0695,15.29662 -14.2204,8.64566 -7.0795,-6.01932 -0.6104,-14.76099 0.4105,-21.88812 -0.017,-5.75503 1.0431,-11.46269 1.0126,-17.2655 0.3036,-5.28096 0.3917,-11.47104 5.0724,-14.94386 4.047,-4.82967 -6.673,-0.69689 -8.9465,-2.04011 -7.4488,-0.483 -15.9297,-0.85385 -20.7305,-7.52591 -3.9454,-5.51662 2.9542,-11.54214 8.4651,-11.14504 4.7461,-0.18021 9.7545,0.12477 14.0222,-2.31785 8.0891,-2.14588 15.7633,2.53253 23.7335,3.03449 7.9536,-1.79745 16.5589,-6.16189 24.5687,-2.13465 6.6495,4.52421 8.5605,-4.1501 5.6781,-8.72075 -4.1916,-3.92593 -10.4415,1.15794 -15.756,0.1246 -8.1364,0.35704 -16.3375,0.38119 -24.2678,2.46955 -6.0645,1.45534 -12.266,0.75957 -18.3929,0.78319 -5.6955,-0.48591 -11.212,-2.96227 -16.9966,-2.10815 -5.6424,14.96759 -5.2884,31.26774 -7.4563,46.9187 -1.3335,10.4893 -3.7173,20.84461 -3.9475,31.45868 0.1689,5.30365 -2.8363,11.66999 1.5743,15.99556 6.1192,5.43258 14.8827,5.37778 22.1295,8.52849 10.1999,3.94346 21.433,4.10104 32.0969,2.22568 z m -15.3426,-24.99836 c 3.7195,-2.99658 -0.045,-12.31125 -2.9228,-11.8826 -1.4778,3.65468 -4.9312,13.88984 2.9228,11.8826 z m -0.4502,-19.17165 c 0.3252,-7.81628 2.7822,-15.56653 1.5722,-23.41809 -5.6623,5.75708 -3.2782,14.85635 -3.8682,22.08743 0.2008,1.6376 2.2818,5.77868 2.296,1.33066 z m 6.8978,-64.88891 c 11.3267,-3.33094 23.354,-1.77628 34.8101,-4.35501 6.4969,-4.53907 -2.9042,-9.81678 -7.5427,-8.11511 -9.6972,-2.01685 -19.6665,-1.86489 -29.5121,-2.35837 -7.7315,0.58485 -15.5072,0.88489 -23.2099,1.82458 -5.4955,-0.36734 -11.4095,5.00922 -6.1212,9.9114 3.8885,5.11403 10.4352,2.84724 15.8356,3.47264 5.2426,0.21589 10.5432,0.55344 15.7402,-0.38013 z" />
  </g>
</svg>
